<svg width="480" height="529" viewBox="0 0 480 529" fill="none" xmlns="http://www.w3.org/2000/svg">
<path d="M196.098 65.6867H217.993" stroke="#263238" stroke-width="2" stroke-miterlimit="10"/>
<path d="M206.367 61.5739L202.939 71.8428C202.939 71.8428 100.29 82.7972 91.3919 67.73C82.494 52.6627 97.5612 47.2053 133.14 52.6759C168.718 58.1465 206.367 61.5739 206.367 61.5739Z" fill="white" stroke="#263238" stroke-miterlimit="10"/>
<path d="M284.616 65.6867H262.72" stroke="#263238" stroke-width="2" stroke-miterlimit="10"/>
<path d="M274.347 61.5739L277.774 71.8428C277.774 71.8428 380.424 82.7972 389.309 67.73C398.193 52.6627 383.219 47.2053 347.627 52.6759C312.035 58.1465 274.347 61.5739 274.347 61.5739Z" fill="white" stroke="#263238" stroke-miterlimit="10"/>
<path d="M227.669 85.8027C227.669 85.8027 223.807 107.909 230.754 109.992C237.701 112.075 254.271 111.613 258.884 105.444C263.498 99.2748 260.4 93.1056 255.286 83.8254C250.171 74.5451 236.738 73.9915 227.669 85.8027Z" fill="white" stroke="#263238" stroke-miterlimit="10"/>
<path d="M237.213 0V69.2986H243.448V3.12417" fill="white"/>
<path d="M237.213 0V69.2986H243.448V3.12417" stroke="#263238" stroke-miterlimit="10"/>
<path d="M221.671 73.5433C234.152 77.4979 247.55 77.4979 260.031 73.5433H269.852V64.6453C269.852 58.0542 256.868 52.7814 240.851 52.7814C224.835 52.7814 211.85 58.0542 211.85 64.6453V73.5433H221.671Z" fill="white" stroke="#263238" stroke-miterlimit="10"/>
<path d="M240.851 85.4072C256.868 85.4072 269.852 80.0955 269.852 73.5433C269.852 66.991 256.868 61.6793 240.851 61.6793C224.835 61.6793 211.85 66.991 211.85 73.5433C211.85 80.0955 224.835 85.4072 240.851 85.4072Z" fill="white" stroke="#263238" stroke-miterlimit="10"/>
<path d="M240.851 85.4072C256.868 85.4072 269.852 80.0955 269.852 73.5433C269.852 66.991 256.868 61.6793 240.851 61.6793C224.835 61.6793 211.85 66.991 211.85 73.5433C211.85 80.0955 224.835 85.4072 240.851 85.4072Z" fill="white" stroke="#263238" stroke-miterlimit="10"/>
<path d="M343.909 309.649H325.177V362.035H343.909V309.649Z" fill="#A8A8A8"/>
<path d="M339.23 313.946H329.87V345.083H339.23V313.946Z" fill="#8C8C8C"/>
<path d="M334.55 357.474C336.086 357.474 337.331 356.229 337.331 354.692C337.331 353.156 336.086 351.911 334.55 351.911C333.014 351.911 331.769 353.156 331.769 354.692C331.769 356.229 333.014 357.474 334.55 357.474Z" fill="#8C8C8C"/>
<path d="M370.656 309.649H351.924V362.035H370.656V309.649Z" fill="#8C8C8C"/>
<path d="M365.963 313.946H356.604V345.083H365.963V313.946Z" fill="#A8A8A8"/>
<path d="M361.296 357.474C362.833 357.474 364.078 356.229 364.078 354.692C364.078 353.156 362.833 351.911 361.296 351.911C359.76 351.911 358.515 353.156 358.515 354.692C358.515 356.229 359.76 357.474 361.296 357.474Z" fill="#A8A8A8"/>
<path d="M397.402 309.649H378.671V362.035H397.402V309.649Z" fill="#8C8C8C"/>
<path d="M392.71 313.946H383.35V345.083H392.71V313.946Z" fill="#A8A8A8"/>
<path d="M390.825 354.653C390.825 354.1 390.66 353.559 390.353 353.099C390.045 352.639 389.608 352.281 389.096 352.07C388.585 351.859 388.022 351.804 387.48 351.913C386.937 352.022 386.44 352.289 386.049 352.681C385.659 353.074 385.394 353.573 385.287 354.116C385.181 354.659 385.238 355.221 385.452 355.731C385.665 356.242 386.026 356.677 386.487 356.983C386.948 357.288 387.49 357.45 388.043 357.447C388.782 357.444 389.489 357.148 390.011 356.624C390.532 356.101 390.825 355.392 390.825 354.653Z" fill="#A8A8A8"/>
<path d="M424.149 309.649H405.417V362.035H424.149V309.649Z" fill="#A8A8A8"/>
<path d="M419.456 313.946H410.097V345.083H419.456V313.946Z" fill="#8C8C8C"/>
<path d="M417.571 354.653C417.571 354.1 417.407 353.56 417.1 353.1C416.793 352.641 416.357 352.282 415.846 352.071C415.335 351.859 414.773 351.804 414.231 351.912C413.689 352.02 413.191 352.286 412.8 352.677C412.41 353.068 412.143 353.565 412.036 354.108C411.928 354.65 411.983 355.212 412.195 355.722C412.406 356.233 412.764 356.669 413.224 356.976C413.683 357.283 414.224 357.447 414.777 357.447C415.518 357.447 416.229 357.153 416.753 356.629C417.277 356.105 417.571 355.394 417.571 354.653Z" fill="#8C8C8C"/>
<path d="M454.6 176.153V172.357H447.508V158.239H441.945V172.357H317.426V158.239H311.863V172.357H302.491V176.153H311.863V235.367H302.491V239.164H311.863V298.391H302.491V302.188H311.863V361.402H302.491V365.199H311.863V430.028H317.426V365.199H441.945V430.028H447.508V365.199H454.6V361.402H447.508V302.188H454.6V298.391H447.508V239.164H454.6V235.367H447.508V176.153H454.6ZM441.945 361.402H317.426V302.188H441.945V361.402ZM441.945 298.391H317.426V239.164H441.945V298.391ZM441.945 235.367H317.426V176.153H441.945V235.367Z" fill="#A8A8A8"/>
<path d="M407.737 182.982H389.005V235.367H407.737V182.982Z" fill="#8C8C8C"/>
<path d="M403.044 187.279H393.685V218.415H403.044V187.279Z" fill="#8C8C8C"/>
<path d="M401.159 228.025C401.159 227.472 400.995 226.931 400.687 226.471C400.38 226.011 399.943 225.653 399.431 225.442C398.92 225.231 398.357 225.176 397.815 225.285C397.272 225.394 396.774 225.661 396.384 226.054C395.994 226.446 395.729 226.945 395.622 227.488C395.516 228.031 395.573 228.593 395.787 229.104C396 229.614 396.36 230.05 396.822 230.355C397.283 230.661 397.825 230.822 398.378 230.82C399.117 230.816 399.824 230.52 400.346 229.996C400.867 229.473 401.159 228.764 401.159 228.025Z" fill="#8C8C8C"/>
<path d="M385.763 182.982H367.031V235.367H385.763V182.982Z" fill="#8C8C8C"/>
<path d="M381.083 187.279H371.724V218.415H381.083V187.279Z" fill="#8C8C8C"/>
<path d="M376.403 230.806C377.939 230.806 379.185 229.561 379.185 228.025C379.185 226.489 377.939 225.244 376.403 225.244C374.867 225.244 373.622 226.489 373.622 228.025C373.622 229.561 374.867 230.806 376.403 230.806Z" fill="#8C8C8C"/>
<path d="M363.801 182.982H345.069V235.367H363.801V182.982Z" fill="#A8A8A8"/>
<path d="M359.108 187.279H349.749V218.415H359.108V187.279Z" fill="#8C8C8C"/>
<path d="M354.429 230.806C355.965 230.806 357.21 229.561 357.21 228.025C357.21 226.489 355.965 225.244 354.429 225.244C352.893 225.244 351.647 226.489 351.647 228.025C351.647 229.561 352.893 230.806 354.429 230.806Z" fill="#8C8C8C"/>
<path d="M433.548 182.982H414.816V235.367H433.548V182.982Z" fill="#8C8C8C"/>
<path d="M428.868 187.279H419.509V218.415H428.868V187.279Z" fill="#8C8C8C"/>
<path d="M424.189 230.806C425.725 230.806 426.97 229.561 426.97 228.025C426.97 226.489 425.725 225.244 424.189 225.244C422.652 225.244 421.407 226.489 421.407 228.025C421.407 229.561 422.652 230.806 424.189 230.806Z" fill="#8C8C8C"/>
<path d="M340.403 182.982H321.671V235.367H340.403V182.982Z" fill="#A8A8A8"/>
<path d="M335.71 187.279H326.351V218.415H335.71V187.279Z" fill="#8C8C8C"/>
<path d="M331.03 230.806C332.566 230.806 333.812 229.561 333.812 228.025C333.812 226.489 332.566 225.244 331.03 225.244C329.494 225.244 328.249 226.489 328.249 228.025C328.249 229.561 329.494 230.806 331.03 230.806Z" fill="#8C8C8C"/>
<path d="M415.897 156.09H359.596C361.48 158.287 362.48 161.106 362.404 163.999C362.475 166.892 361.475 169.709 359.596 171.909H415.897C417.995 171.909 420.006 171.075 421.49 169.592C422.973 168.109 423.806 166.097 423.806 163.999C423.806 161.902 422.973 159.89 421.49 158.407C420.006 156.923 417.995 156.09 415.897 156.09Z" fill="#D4D4D4" stroke="white" stroke-miterlimit="10"/>
<path d="M418.112 156.406V171.421C419.734 170.935 421.158 169.942 422.173 168.587C423.189 167.232 423.743 165.587 423.754 163.894C423.734 162.207 423.177 160.571 422.162 159.224C421.147 157.877 419.728 156.89 418.112 156.406Z" fill="#9C9C9C" stroke="white" stroke-miterlimit="10"/>
<path d="M415.897 139.388H359.596C361.475 141.588 362.475 144.405 362.404 147.297C362.475 150.19 361.475 153.007 359.596 155.207H415.897C417.995 155.207 420.006 154.373 421.49 152.89C422.973 151.407 423.806 149.395 423.806 147.297C423.806 145.2 422.973 143.188 421.49 141.705C420.006 140.221 417.995 139.388 415.897 139.388Z" fill="#D4D4D4" stroke="white" stroke-miterlimit="10"/>
<path d="M418.112 139.705V154.785C419.736 154.299 421.161 153.304 422.177 151.946C423.193 150.588 423.746 148.94 423.754 147.245C423.746 145.549 423.193 143.901 422.177 142.543C421.161 141.186 419.736 140.191 418.112 139.705Z" fill="#9C9C9C" stroke="white" stroke-miterlimit="10"/>
<path d="M358.858 117.954H340.126V170.34H358.858V117.954Z" fill="#A8A8A8"/>
<path d="M354.165 122.251H344.806V153.388H354.165V122.251Z" fill="#A8A8A8"/>
<path d="M352.267 162.997C352.267 162.447 352.104 161.91 351.798 161.452C351.492 160.995 351.058 160.638 350.55 160.428C350.041 160.217 349.482 160.162 348.943 160.269C348.403 160.377 347.908 160.642 347.519 161.031C347.13 161.42 346.865 161.915 346.757 162.455C346.65 162.994 346.705 163.554 346.916 164.062C347.126 164.57 347.483 165.004 347.94 165.31C348.397 165.616 348.935 165.779 349.485 165.779C349.851 165.781 350.214 165.71 350.552 165.571C350.89 165.432 351.197 165.227 351.456 164.968C351.715 164.709 351.919 164.402 352.059 164.064C352.198 163.726 352.268 163.363 352.267 162.997Z" fill="#A8A8A8"/>
<path d="M433.548 245.491H414.816V297.877H433.548V245.491Z" fill="#A8A8A8"/>
<path d="M428.868 249.802H419.509V280.938H428.868V249.802Z" fill="#8C8C8C"/>
<path d="M426.97 290.548C426.97 289.998 426.807 289.46 426.501 289.003C426.196 288.545 425.761 288.189 425.253 287.978C424.745 287.768 424.186 287.713 423.646 287.82C423.106 287.927 422.611 288.192 422.222 288.581C421.833 288.97 421.568 289.466 421.461 290.005C421.353 290.545 421.408 291.104 421.619 291.612C421.829 292.121 422.186 292.555 422.643 292.861C423.101 293.166 423.638 293.329 424.189 293.329C424.925 293.326 425.631 293.032 426.152 292.511C426.672 291.99 426.967 291.285 426.97 290.548Z" fill="#8C8C8C"/>
<path d="M411.837 245.491H393.105V297.877H411.837V245.491Z" fill="#A8A8A8"/>
<path d="M407.144 249.802H397.785V280.938H407.144V249.802Z" fill="#8C8C8C"/>
<path d="M405.246 290.548C405.246 289.998 405.083 289.46 404.777 289.003C404.471 288.545 404.037 288.189 403.529 287.978C403.021 287.768 402.461 287.713 401.922 287.82C401.382 287.927 400.887 288.192 400.498 288.581C400.109 288.97 399.844 289.466 399.736 290.005C399.629 290.545 399.684 291.104 399.895 291.612C400.105 292.121 400.462 292.555 400.919 292.861C401.377 293.166 401.914 293.329 402.464 293.329C402.83 293.329 403.191 293.257 403.529 293.118C403.866 292.978 404.173 292.773 404.431 292.515C404.689 292.256 404.894 291.95 405.034 291.612C405.174 291.275 405.246 290.913 405.246 290.548Z" fill="#8C8C8C"/>
<path d="M367.018 245.491H348.286V297.877H367.018V245.491Z" fill="#A8A8A8"/>
<path d="M362.325 249.802H352.965V280.938H362.325V249.802Z" fill="#8C8C8C"/>
<path d="M360.426 290.548C360.426 289.998 360.263 289.46 359.958 289.003C359.652 288.545 359.218 288.189 358.709 287.978C358.201 287.768 357.642 287.713 357.102 287.82C356.563 287.927 356.067 288.192 355.678 288.581C355.289 288.97 355.024 289.466 354.917 290.005C354.81 290.545 354.865 291.104 355.075 291.612C355.286 292.121 355.642 292.555 356.1 292.861C356.557 293.166 357.095 293.329 357.645 293.329C358.01 293.329 358.372 293.257 358.709 293.118C359.047 292.978 359.354 292.773 359.612 292.515C359.87 292.256 360.075 291.95 360.215 291.612C360.355 291.275 360.426 290.913 360.426 290.548Z" fill="#8C8C8C"/>
<path d="M390.113 245.491H371.381V297.877H390.113V245.491Z" fill="#A8A8A8"/>
<path d="M385.42 249.802H376.061V280.938H385.42V249.802Z" fill="#8C8C8C"/>
<path d="M383.522 290.548C383.522 289.998 383.359 289.46 383.053 289.003C382.747 288.545 382.313 288.189 381.805 287.978C381.296 287.768 380.737 287.713 380.198 287.82C379.658 287.927 379.162 288.192 378.773 288.581C378.384 288.97 378.12 289.466 378.012 290.005C377.905 290.545 377.96 291.104 378.171 291.612C378.381 292.121 378.738 292.555 379.195 292.861C379.652 293.166 380.19 293.329 380.74 293.329C381.105 293.329 381.467 293.257 381.805 293.118C382.142 292.978 382.449 292.773 382.707 292.515C382.965 292.256 383.17 291.95 383.31 291.612C383.45 291.275 383.522 290.913 383.522 290.548Z" fill="#8C8C8C"/>
<path d="M193.211 309.649H174.479V362.035H193.211V309.649Z" fill="#A8A8A8"/>
<path d="M188.518 313.946H179.159V345.083H188.518V313.946Z" fill="#A8A8A8"/>
<path d="M183.838 357.474C185.374 357.474 186.62 356.229 186.62 354.692C186.62 353.156 185.374 351.911 183.838 351.911C182.302 351.911 181.057 353.156 181.057 354.692C181.057 356.229 182.302 357.474 183.838 357.474Z" fill="#A8A8A8"/>
<path d="M219.944 309.649H201.212V362.035H219.944V309.649Z" fill="#A8A8A8"/>
<path d="M215.265 313.946H205.905V345.083H215.265V313.946Z" fill="#A8A8A8"/>
<path d="M210.585 357.474C212.121 357.474 213.366 356.229 213.366 354.692C213.366 353.156 212.121 351.911 210.585 351.911C209.049 351.911 207.803 353.156 207.803 354.692C207.803 356.229 209.049 357.474 210.585 357.474Z" fill="#A8A8A8"/>
<path d="M246.691 309.649H227.959V362.035H246.691V309.649Z" fill="#A8A8A8"/>
<path d="M242.011 313.946H232.652V345.083H242.011V313.946Z" fill="#A8A8A8"/>
<path d="M237.332 357.474C238.868 357.474 240.113 356.229 240.113 354.692C240.113 353.156 238.868 351.911 237.332 351.911C235.795 351.911 234.55 353.156 234.55 354.692C234.55 356.229 235.795 357.474 237.332 357.474Z" fill="#A8A8A8"/>
<path d="M273.437 309.649H254.706V362.035H273.437V309.649Z" fill="#A8A8A8"/>
<path d="M268.745 313.946H259.385V345.083H268.745V313.946Z" fill="#A8A8A8"/>
<path d="M266.86 354.653C266.86 354.1 266.695 353.559 266.388 353.099C266.08 352.639 265.643 352.281 265.131 352.07C264.62 351.859 264.057 351.804 263.515 351.913C262.972 352.022 262.475 352.289 262.084 352.681C261.694 353.074 261.429 353.573 261.322 354.116C261.216 354.659 261.273 355.221 261.487 355.731C261.7 356.242 262.061 356.677 262.522 356.983C262.983 357.288 263.525 357.45 264.078 357.447C264.817 357.444 265.525 357.148 266.046 356.624C266.567 356.101 266.86 355.392 266.86 354.653Z" fill="#A8A8A8"/>
<path d="M166.715 158.239H161.152V430.028H166.715V158.239Z" fill="#A8A8A8"/>
<path d="M296.796 158.239H291.233V430.028H296.796V158.239Z" fill="#A8A8A8"/>
<path d="M303.888 172.357H151.779V176.153H303.888V172.357Z" fill="#A8A8A8"/>
<path d="M303.888 235.367H151.779V239.164H303.888V235.367Z" fill="#A8A8A8"/>
<path d="M303.888 298.391H151.779V302.188H303.888V298.391Z" fill="#A8A8A8"/>
<path d="M303.888 361.402H151.779V365.199H303.888V361.402Z" fill="#A8A8A8"/>
<path d="M257.026 182.982H238.294V235.367H257.026V182.982Z" fill="#A8A8A8"/>
<path d="M252.333 187.279H242.974V218.415H252.333V187.279Z" fill="#A8A8A8"/>
<path d="M250.448 228.025C250.448 227.472 250.284 226.931 249.976 226.471C249.668 226.011 249.231 225.653 248.72 225.442C248.208 225.231 247.646 225.176 247.103 225.285C246.561 225.394 246.063 225.661 245.672 226.054C245.282 226.446 245.017 226.945 244.911 227.488C244.804 228.031 244.862 228.593 245.075 229.104C245.289 229.614 245.649 230.05 246.11 230.355C246.571 230.661 247.113 230.822 247.666 230.82C248.405 230.816 249.113 230.52 249.634 229.996C250.155 229.473 250.448 228.764 250.448 228.025Z" fill="#A8A8A8"/>
<path d="M235.064 182.982H216.332V235.367H235.064V182.982Z" fill="#A8A8A8"/>
<path d="M230.371 187.279H221.012V218.415H230.371V187.279Z" fill="#8C8C8C"/>
<path d="M225.692 230.806C227.228 230.806 228.473 229.561 228.473 228.025C228.473 226.489 227.228 225.244 225.692 225.244C224.156 225.244 222.91 226.489 222.91 228.025C222.91 229.561 224.156 230.806 225.692 230.806Z" fill="#8C8C8C"/>
<path d="M213.09 182.982H194.358V235.367H213.09V182.982Z" fill="#A8A8A8"/>
<path d="M208.397 187.279H199.037V218.415H208.397V187.279Z" fill="#8C8C8C"/>
<path d="M203.717 230.806C205.253 230.806 206.498 229.561 206.498 228.025C206.498 226.489 205.253 225.244 203.717 225.244C202.181 225.244 200.936 226.489 200.936 228.025C200.936 229.561 202.181 230.806 203.717 230.806Z" fill="#8C8C8C"/>
<path d="M282.849 182.982H264.118V235.367H282.849V182.982Z" fill="#A8A8A8"/>
<path d="M278.157 187.279H268.797V218.415H278.157V187.279Z" fill="#8C8C8C"/>
<path d="M273.477 230.806C275.013 230.806 276.258 229.561 276.258 228.025C276.258 226.489 275.013 225.244 273.477 225.244C271.941 225.244 270.696 226.489 270.696 228.025C270.696 229.561 271.941 230.806 273.477 230.806Z" fill="#A8A8A8"/>
<path d="M189.691 182.982H170.959V235.367H189.691V182.982Z" fill="#A8A8A8"/>
<path d="M184.998 187.279H175.639V218.415H184.998V187.279Z" fill="#8C8C8C"/>
<path d="M180.319 230.806C181.855 230.806 183.1 229.561 183.1 228.025C183.1 226.489 181.855 225.244 180.319 225.244C178.783 225.244 177.537 226.489 177.537 228.025C177.537 229.561 178.783 230.806 180.319 230.806Z" fill="#8C8C8C"/>
<path d="M189.691 119.707H170.959V172.093H189.691V119.707Z" fill="#A8A8A8"/>
<path d="M184.998 124.005H175.639V155.141H184.998V124.005Z" fill="#8C8C8C"/>
<path d="M180.319 167.532C181.855 167.532 183.1 166.287 183.1 164.751C183.1 163.214 181.855 161.969 180.319 161.969C178.783 161.969 177.537 163.214 177.537 164.751C177.537 166.287 178.783 167.532 180.319 167.532Z" fill="#8C8C8C"/>
<path d="M210.269 119.707H191.537V172.093H210.269V119.707Z" fill="#A8A8A8"/>
<path d="M205.589 124.005H196.23V155.141H205.589V124.005Z" fill="#8C8C8C"/>
<path d="M200.909 167.532C202.445 167.532 203.691 166.287 203.691 164.751C203.691 163.214 202.445 161.969 200.909 161.969C199.373 161.969 198.128 163.214 198.128 164.751C198.128 166.287 199.373 167.532 200.909 167.532Z" fill="#8C8C8C"/>
<path d="M263.419 173.135V154.403H211.033V173.135H263.419Z" fill="#A8A8A8"/>
<path d="M259.122 168.442V159.082H227.999V168.442H259.122Z" fill="#8C8C8C"/>
<path d="M218.442 166.543C218.992 166.543 219.529 166.38 219.987 166.075C220.444 165.769 220.801 165.335 221.011 164.826C221.222 164.318 221.277 163.759 221.17 163.219C221.062 162.68 220.797 162.184 220.408 161.795C220.019 161.406 219.524 161.141 218.984 161.034C218.445 160.927 217.885 160.982 217.377 161.192C216.869 161.403 216.434 161.759 216.129 162.217C215.823 162.674 215.66 163.212 215.66 163.762C215.664 164.499 215.958 165.204 216.479 165.725C216.999 166.246 217.705 166.54 218.442 166.543Z" fill="#8C8C8C"/>
<path d="M282.849 245.491H264.118V297.877H282.849V245.491Z" fill="#A8A8A8"/>
<path d="M278.157 249.802H268.797V280.938H278.157V249.802Z" fill="#A8A8A8"/>
<path d="M276.258 290.548C276.258 289.998 276.095 289.46 275.79 289.003C275.484 288.545 275.05 288.189 274.541 287.978C274.033 287.768 273.474 287.713 272.934 287.82C272.395 287.927 271.899 288.192 271.51 288.581C271.121 288.97 270.856 289.466 270.749 290.005C270.642 290.545 270.697 291.104 270.907 291.612C271.118 292.121 271.474 292.555 271.932 292.861C272.389 293.166 272.927 293.329 273.477 293.329C273.842 293.329 274.204 293.257 274.541 293.118C274.879 292.978 275.186 292.773 275.444 292.515C275.702 292.256 275.907 291.95 276.047 291.612C276.186 291.275 276.258 290.913 276.258 290.548Z" fill="#A8A8A8"/>
<path d="M261.125 245.491H242.394V297.877H261.125V245.491Z" fill="#A8A8A8"/>
<path d="M256.432 249.802H247.073V280.938H256.432V249.802Z" fill="#A8A8A8"/>
<path d="M254.534 290.548C254.534 289.998 254.371 289.46 254.066 289.003C253.76 288.545 253.325 288.189 252.817 287.978C252.309 287.768 251.75 287.713 251.21 287.82C250.671 287.927 250.175 288.192 249.786 288.581C249.397 288.97 249.132 289.466 249.025 290.005C248.918 290.545 248.973 291.104 249.183 291.612C249.394 292.121 249.75 292.555 250.208 292.861C250.665 293.166 251.203 293.329 251.753 293.329C252.118 293.329 252.48 293.257 252.817 293.118C253.155 292.978 253.461 292.773 253.72 292.515C253.978 292.256 254.183 291.95 254.323 291.612C254.462 291.275 254.534 290.913 254.534 290.548Z" fill="#A8A8A8"/>
<path d="M216.306 245.491H197.574V297.877H216.306V245.491Z" fill="#A8A8A8"/>
<path d="M211.613 249.802H202.254V280.938H211.613V249.802Z" fill="#A8A8A8"/>
<path d="M209.715 290.548C209.715 289.998 209.552 289.46 209.246 289.003C208.941 288.545 208.506 288.189 207.998 287.978C207.49 287.768 206.93 287.713 206.391 287.82C205.851 287.927 205.356 288.192 204.967 288.581C204.578 288.97 204.313 289.466 204.205 290.005C204.098 290.545 204.153 291.104 204.364 291.612C204.574 292.121 204.931 292.555 205.388 292.861C205.846 293.166 206.383 293.329 206.933 293.329C207.299 293.329 207.66 293.257 207.998 293.118C208.335 292.978 208.642 292.773 208.9 292.515C209.159 292.256 209.363 291.95 209.503 291.612C209.643 291.275 209.715 290.913 209.715 290.548Z" fill="#A8A8A8"/>
<path d="M239.401 245.491H220.669V297.877H239.401V245.491Z" fill="#A8A8A8"/>
<path d="M234.708 249.802H225.349V280.938H234.708V249.802Z" fill="#A8A8A8"/>
<path d="M232.81 290.548C232.81 289.998 232.647 289.46 232.341 289.003C232.036 288.545 231.601 288.189 231.093 287.978C230.585 287.768 230.026 287.713 229.486 287.82C228.946 287.927 228.451 288.192 228.062 288.581C227.673 288.97 227.408 289.466 227.301 290.005C227.193 290.545 227.248 291.104 227.459 291.612C227.669 292.121 228.026 292.555 228.483 292.861C228.941 293.166 229.479 293.329 230.029 293.329C230.394 293.329 230.756 293.257 231.093 293.118C231.431 292.978 231.737 292.773 231.995 292.515C232.254 292.256 232.459 291.95 232.598 291.612C232.738 291.275 232.81 290.913 232.81 290.548Z" fill="#A8A8A8"/>
<path d="M41.4183 309.649H22.6865V362.035H41.4183V309.649Z" fill="#A8A8A8"/>
<path d="M36.7255 313.946H27.3661V345.083H36.7255V313.946Z" fill="#8C8C8C"/>
<path d="M32.059 357.474C33.5951 357.474 34.8404 356.229 34.8404 354.692C34.8404 353.156 33.5951 351.911 32.059 351.911C30.5228 351.911 29.2776 353.156 29.2776 354.692C29.2776 356.229 30.5228 357.474 32.059 357.474Z" fill="#8C8C8C"/>
<path d="M68.1649 309.649H49.4331V362.035H68.1649V309.649Z" fill="#A8A8A8"/>
<path d="M63.4721 313.946H54.1127V345.083H63.4721V313.946Z" fill="#8C8C8C"/>
<path d="M58.8056 357.474C60.3417 357.474 61.587 356.229 61.587 354.692C61.587 353.156 60.3417 351.911 58.8056 351.911C57.2694 351.911 56.0242 353.156 56.0242 354.692C56.0242 356.229 57.2694 357.474 58.8056 357.474Z" fill="#8C8C8C"/>
<path d="M94.9115 309.649H76.1797V362.035H94.9115V309.649Z" fill="#8C8C8C"/>
<path d="M90.2186 313.946H80.8593V345.083H90.2186V313.946Z" fill="#A8A8A8"/>
<path d="M85.539 357.474C87.0751 357.474 88.3204 356.229 88.3204 354.692C88.3204 353.156 87.0751 351.911 85.539 351.911C84.0028 351.911 82.7576 353.156 82.7576 354.692C82.7576 356.229 84.0028 357.474 85.539 357.474Z" fill="#A8A8A8"/>
<path d="M121.658 309.649H102.926V362.035H121.658V309.649Z" fill="#A8A8A8"/>
<path d="M116.965 313.946H107.606V345.083H116.965V313.946Z" fill="#8C8C8C"/>
<path d="M112.286 357.474C113.822 357.474 115.067 356.229 115.067 354.692C115.067 353.156 113.822 351.911 112.286 351.911C110.749 351.911 109.504 353.156 109.504 354.692C109.504 356.229 110.749 357.474 112.286 357.474Z" fill="#8C8C8C"/>
<path d="M14.9222 158.239H9.35934V430.028H14.9222V158.239Z" fill="#A8A8A8"/>
<path d="M145.017 158.239H139.454V430.028H145.017V158.239Z" fill="#A8A8A8"/>
<path d="M152.109 172.357H0V176.153H152.109V172.357Z" fill="#A8A8A8"/>
<path d="M152.109 235.367H0V239.164H152.109V235.367Z" fill="#A8A8A8"/>
<path d="M152.109 298.391H0V302.188H152.109V298.391Z" fill="#A8A8A8"/>
<path d="M152.109 361.402H0V365.199H152.109V361.402Z" fill="#A8A8A8"/>
<path d="M105.246 182.982H86.5145V235.367H105.246V182.982Z" fill="#8C8C8C"/>
<path d="M100.553 187.279H91.1942V218.415H100.553V187.279Z" fill="#A8A8A8"/>
<path d="M98.6684 228.025C98.6684 227.472 98.5045 226.932 98.1975 226.472C97.8904 226.013 97.4539 225.655 96.9433 225.443C96.4326 225.232 95.8707 225.176 95.3286 225.284C94.7865 225.392 94.2886 225.658 93.8977 226.049C93.5069 226.44 93.2407 226.938 93.1329 227.48C93.0251 228.022 93.0804 228.584 93.2919 229.094C93.5034 229.605 93.8616 230.042 94.3212 230.349C94.7808 230.656 95.3211 230.82 95.8738 230.82C96.615 230.82 97.3258 230.525 97.8499 230.001C98.374 229.477 98.6684 228.766 98.6684 228.025Z" fill="#A8A8A8"/>
<path d="M83.2717 182.982H64.5398V235.367H83.2717V182.982Z" fill="#A8A8A8"/>
<path d="M78.5788 187.279H69.2195V218.415H78.5788V187.279Z" fill="#8C8C8C"/>
<path d="M73.9124 230.806C75.4485 230.806 76.6938 229.561 76.6938 228.025C76.6938 226.489 75.4485 225.244 73.9124 225.244C72.3762 225.244 71.1309 226.489 71.1309 228.025C71.1309 229.561 72.3762 230.806 73.9124 230.806Z" fill="#8C8C8C"/>
<path d="M61.3102 182.982H42.5783V235.367H61.3102V182.982Z" fill="#A8A8A8"/>
<path d="M56.6174 187.279H47.258V218.415H56.6174V187.279Z" fill="#8C8C8C"/>
<path d="M51.9377 230.806C53.4738 230.806 54.7191 229.561 54.7191 228.025C54.7191 226.489 53.4738 225.244 51.9377 225.244C50.4015 225.244 49.1562 226.489 49.1562 228.025C49.1562 229.561 50.4015 230.806 51.9377 230.806Z" fill="#8C8C8C"/>
<path d="M131.057 182.982H112.325V235.367H131.057V182.982Z" fill="#A8A8A8"/>
<path d="M126.364 187.279H117.005V218.415H126.364V187.279Z" fill="#8C8C8C"/>
<path d="M121.698 230.806C123.234 230.806 124.479 229.561 124.479 228.025C124.479 226.489 123.234 225.244 121.698 225.244C120.162 225.244 118.916 226.489 118.916 228.025C118.916 229.561 120.162 230.806 121.698 230.806Z" fill="#8C8C8C"/>
<path d="M77.9593 154.047V172.779H130.345V154.047H77.9593Z" fill="#A8A8A8"/>
<path d="M82.2698 158.726V168.086H113.406V158.726H82.2698Z" fill="#8C8C8C"/>
<path d="M123.016 160.625C122.463 160.622 121.921 160.784 121.46 161.089C120.998 161.395 120.638 161.83 120.425 162.341C120.211 162.851 120.154 163.413 120.26 163.956C120.367 164.499 120.632 164.998 121.022 165.391C121.412 165.783 121.91 166.05 122.453 166.159C122.995 166.268 123.558 166.213 124.069 166.002C124.581 165.791 125.018 165.433 125.325 164.973C125.633 164.513 125.797 163.972 125.797 163.419C125.797 162.68 125.505 161.971 124.983 161.448C124.462 160.924 123.755 160.628 123.016 160.625Z" fill="#8C8C8C"/>
<path d="M76.0083 135.644V154.376H128.394V135.644H76.0083Z" fill="#A8A8A8"/>
<path d="M80.3057 140.324V149.683H111.442V140.324H80.3057Z" fill="#8C8C8C"/>
<path d="M121.052 142.222C120.502 142.222 119.964 142.385 119.506 142.691C119.049 142.997 118.693 143.431 118.482 143.939C118.271 144.448 118.216 145.007 118.324 145.546C118.431 146.086 118.696 146.582 119.085 146.971C119.474 147.36 119.97 147.624 120.509 147.732C121.049 147.839 121.608 147.784 122.116 147.573C122.624 147.363 123.059 147.006 123.364 146.549C123.67 146.092 123.833 145.554 123.833 145.004C123.835 144.638 123.764 144.276 123.625 143.937C123.486 143.599 123.281 143.292 123.022 143.033C122.764 142.774 122.456 142.57 122.118 142.43C121.78 142.291 121.417 142.221 121.052 142.222Z" fill="#8C8C8C"/>
<path d="M37.9119 182.982H19.18V235.367H37.9119V182.982Z" fill="#A8A8A8"/>
<path d="M33.219 187.279H23.8597V218.415H33.219V187.279Z" fill="#8C8C8C"/>
<path d="M28.5394 230.806C30.0755 230.806 31.3208 229.561 31.3208 228.025C31.3208 226.489 30.0755 225.244 28.5394 225.244C27.0032 225.244 25.7579 226.489 25.7579 228.025C25.7579 229.561 27.0032 230.806 28.5394 230.806Z" fill="#8C8C8C"/>
<path d="M131.057 245.491H112.325V297.877H131.057V245.491Z" fill="#A8A8A8"/>
<path d="M126.364 249.802H117.005V280.938H126.364V249.802Z" fill="#8C8C8C"/>
<path d="M124.479 290.548C124.482 289.994 124.32 289.452 124.014 288.99C123.708 288.529 123.271 288.169 122.76 287.955C122.249 287.742 121.686 287.686 121.143 287.793C120.599 287.901 120.1 288.167 119.708 288.559C119.317 288.95 119.05 289.45 118.943 289.993C118.836 290.536 118.892 291.099 119.105 291.61C119.318 292.122 119.679 292.558 120.14 292.864C120.602 293.17 121.144 293.332 121.698 293.329C122.434 293.326 123.14 293.032 123.661 292.511C124.181 291.99 124.476 291.285 124.479 290.548Z" fill="#8C8C8C"/>
<path d="M109.333 245.491H90.601V297.877H109.333V245.491Z" fill="#8C8C8C"/>
<path d="M104.653 249.802H95.2938V280.938H104.653V249.802Z" fill="#A8A8A8"/>
<path d="M102.755 290.548C102.755 289.998 102.592 289.46 102.286 289.003C101.981 288.545 101.546 288.189 101.038 287.978C100.53 287.768 99.9704 287.713 99.4309 287.82C98.8913 287.927 98.3957 288.192 98.0067 288.581C97.6177 288.97 97.3528 289.466 97.2455 290.005C97.1382 290.545 97.1933 291.104 97.4038 291.612C97.6143 292.121 97.9708 292.555 98.4282 292.861C98.8856 293.166 99.4234 293.329 99.9735 293.329C100.71 293.326 101.416 293.032 101.936 292.511C102.457 291.99 102.751 291.285 102.755 290.548Z" fill="#A8A8A8"/>
<path d="M42.3543 245.491H23.6224V297.877H42.3543V245.491Z" fill="#8C8C8C"/>
<path d="M37.6746 249.802H28.3153V280.938H37.6746V249.802Z" fill="#A8A8A8"/>
<path d="M35.7764 290.548C35.7764 289.998 35.6132 289.46 35.3076 289.003C35.002 288.545 34.5676 288.189 34.0594 287.978C33.5511 287.768 32.9918 287.713 32.4523 287.82C31.9128 287.927 31.4172 288.192 31.0282 288.581C30.6392 288.97 30.3743 289.466 30.2669 290.005C30.1596 290.545 30.2147 291.104 30.4252 291.612C30.6357 292.121 30.9922 292.555 31.4497 292.861C31.9071 293.166 32.4448 293.329 32.9949 293.329C33.7316 293.326 34.437 293.032 34.9579 292.511C35.4788 291.99 35.7729 291.285 35.7764 290.548Z" fill="#A8A8A8"/>
<path d="M64.5135 245.491H45.7816V297.877H64.5135V245.491Z" fill="#8C8C8C"/>
<path d="M59.8338 249.802H50.4745V280.938H59.8338V249.802Z" fill="#A8A8A8"/>
<path d="M57.9356 290.548C57.9356 289.998 57.7724 289.46 57.4668 289.003C57.1612 288.545 56.7268 288.189 56.2185 287.978C55.7103 287.768 55.1511 287.713 54.6115 287.82C54.072 287.927 53.5764 288.192 53.1874 288.581C52.7984 288.97 52.5335 289.466 52.4261 290.005C52.3188 290.545 52.3739 291.104 52.5844 291.612C52.7949 292.121 53.1515 292.555 53.6089 292.861C54.0663 293.166 54.604 293.329 55.1541 293.329C55.8907 293.326 56.5962 293.032 57.1171 292.511C57.6379 291.99 57.9321 291.285 57.9356 290.548Z" fill="#A8A8A8"/>
<path d="M87.6086 245.491H68.8768V297.877H87.6086V245.491Z" fill="#8C8C8C"/>
<path d="M82.9289 249.802H73.5696V280.938H82.9289V249.802Z" fill="#A8A8A8"/>
<path d="M81.0307 290.548C81.0307 289.998 80.8676 289.46 80.562 289.003C80.2563 288.545 79.8219 288.189 79.3137 287.978C78.8054 287.768 78.2462 287.713 77.7066 287.82C77.1671 287.927 76.6715 288.192 76.2825 288.581C75.8935 288.97 75.6286 289.466 75.5213 290.005C75.414 290.545 75.469 291.104 75.6796 291.612C75.8901 292.121 76.2466 292.555 76.704 292.861C77.1614 293.166 77.6992 293.329 78.2493 293.329C78.9859 293.326 79.6913 293.032 80.2122 292.511C80.7331 291.99 81.0272 291.285 81.0307 290.548Z" fill="#A8A8A8"/>
<path d="M73.3587 430.556H45.2675L41.0492 383.983H77.577L73.3587 430.556Z" fill="#FFD0F5" stroke="#263238" stroke-linecap="round" stroke-linejoin="round"/>
<path d="M77.5111 382.296H41.102C40.039 382.296 39.1774 383.157 39.1774 384.22V384.405C39.1774 385.468 40.039 386.329 41.102 386.329H77.5111C78.574 386.329 79.4357 385.468 79.4357 384.405V384.22C79.4357 383.157 78.574 382.296 77.5111 382.296Z" fill="white" stroke="#263238" stroke-linecap="round" stroke-linejoin="round"/>
<path d="M42.8288 317.281C43.389 316.021 44.2326 314.907 45.2939 314.025" stroke="#263238" stroke-linecap="round" stroke-linejoin="round"/>
<path d="M52.5573 379.778C52.5573 379.778 60.862 378.394 66.7413 368.705C72.6205 359.016 64.3289 354.204 50.8304 342.749C42.4334 335.644 40.601 327.59 41.4974 321.658" stroke="#263238" stroke-linecap="round" stroke-linejoin="round"/>
<path d="M70.2345 378.196C73.3126 376.278 75.532 373.247 76.4301 369.733C78.1701 363.142 75.7446 355.549 66.0558 349.327C56.3669 343.105 51.1731 341.418 46.678 335.486" stroke="#263238" stroke-linecap="round" stroke-linejoin="round"/>
<path d="M63.2875 380.806C64.8167 380.569 66.3066 380.125 67.7167 379.488" stroke="#263238" stroke-linecap="round" stroke-linejoin="round"/>
<path d="M184.748 305.958C178.473 298.958 175.916 291.167 177.814 280.477C181.11 262.022 201.358 241.497 201.358 228.592C201.358 215.686 210.387 185.631 237.978 183.851C265.568 182.072 279.567 195.94 285.433 226.311C291.299 256.683 291.009 261.995 297.838 276.166C300.646 282.006 303.822 287.898 304.982 294.344C307.289 307.131 293.409 313.379 283.588 316.899C256.011 326.759 221.5 333.271 195.531 315.409C191.572 312.701 187.952 309.527 184.748 305.958Z" fill="#263238" stroke="#263238" stroke-linecap="round" stroke-linejoin="round"/>
<path d="M284.669 249.789C286.173 250.484 287.745 251.019 289.362 251.384" stroke="white" stroke-miterlimit="10" stroke-linecap="round"/>
<path d="M246.836 207.869C246.836 207.869 257.711 233.575 270.564 241.985C273.451 243.87 275.982 245.373 278.17 246.585" stroke="white" stroke-miterlimit="10" stroke-linecap="round"/>
<path d="M230.055 215.792C223.807 226.588 211.903 243.699 195.9 250.883" stroke="white" stroke-miterlimit="10" stroke-linecap="round"/>
<path d="M234.959 206.38C234.959 206.38 234.194 208.12 232.731 210.928" stroke="white" stroke-miterlimit="10" stroke-linecap="round"/>
<path d="M205.787 251.384C205.787 251.384 185.486 271.605 187.991 295.333" stroke="white" stroke-miterlimit="10" stroke-linecap="round"/>
<path d="M211.231 255.787C211.231 255.787 201.832 281.505 204.798 297.824" stroke="white" stroke-miterlimit="10" stroke-linecap="round"/>
<path d="M220.089 281.492C220.089 281.492 173.266 294.133 169.72 295.399C166.174 296.664 166.688 304.771 166.688 306.538C166.688 308.304 156.314 361.455 156.314 361.455C152.994 363.548 149.858 365.921 146.942 368.547C142.895 372.343 144.411 377.405 144.411 378.671C144.411 379.936 144.661 380.437 143.396 381.703C142.13 382.968 139.349 380.701 139.863 388.544C140.377 396.387 137.582 414.908 144.661 415.871C151.74 416.833 155.299 416.134 165.673 412.588C171.782 410.553 176.92 406.326 180.095 400.724V430.595H307.144C307.144 430.595 320.05 392.881 320.814 368.085C321.579 343.29 324.861 306.828 320.313 300C315.765 293.171 291.708 285.578 270.445 283.047C249.182 280.516 223.886 280.477 220.089 281.492Z" fill="#FFD0F5"/>
<g style="mix-blend-mode:multiply" opacity="0.24">
<path d="M315.475 295.86C316.135 296.638 316.411 297.297 315.845 297.561C314.104 298.391 305.932 301.028 304.943 304.495C303.954 307.962 304.363 293.949 302.465 298.049C300.566 302.148 297.996 318.375 287.595 351.093C279.277 377.207 274.769 410.585 277.577 430.556H307.144C307.144 430.556 320.05 392.841 320.814 368.046C321.579 343.25 324.861 306.788 320.313 299.96C318.996 298.279 317.35 296.884 315.475 295.86Z" fill="black"/>
</g>
<path d="M221.856 274.4C220.084 275.594 218.682 277.261 217.809 279.211C216.042 282.744 201.107 310.334 199.842 311.6C198.576 312.865 206.67 312.615 209.965 311.099C213.261 309.583 219.325 309.583 219.325 309.583L225.151 314.131L243.119 321.223C243.119 321.223 251.212 315.396 255.259 312.114C259.306 308.832 261.086 307.553 261.086 307.553C264.6 308.742 267.991 310.27 271.21 312.114C275.257 314.645 273.741 315.91 275.257 314.645C276.773 313.379 276.021 310.848 273.938 307.302C271.856 303.756 265.594 284.273 257.738 276.983C249.881 269.694 231.215 267.308 221.856 274.4Z" fill="#FFD0F5" stroke="#263238" stroke-linecap="round" stroke-linejoin="round"/>
<path d="M258.555 337.424L293.488 337.674L292.723 347.548L274.756 356.656L258.555 347.798V337.424Z" fill="#FFD0F5" stroke="#263238" stroke-linecap="round" stroke-linejoin="round"/>
<path d="M180.095 334.379L215.027 334.629L214.263 344.502L196.296 353.611L180.095 344.753V334.379Z" fill="#FFD0F5" stroke="#263238" stroke-linecap="round" stroke-linejoin="round"/>
<g style="mix-blend-mode:multiply" opacity="0.24">
<path d="M180.517 410.084C180.517 410.084 178.539 335.235 180.029 326.799C181.518 318.362 171.104 293.092 171.592 306.485C172.08 319.878 175.547 340.06 175.837 345.082C176.127 350.105 164.157 347.627 165.146 354.073C166.135 360.519 173.055 360.506 175.072 370.432C177.089 380.358 160.19 379.844 160.19 385.301C160.19 390.759 166.148 398.18 161.191 402.649C156.235 407.118 153.44 401.133 153.44 401.133C155.204 405.834 155.544 410.951 154.416 415.844C158.253 415.054 162.029 413.988 165.713 412.654C171.822 410.619 176.96 406.392 180.134 400.79V411.547L180.517 410.084Z" fill="black"/>
</g>
<path d="M220.089 281.492C220.089 281.492 173.266 294.133 169.72 295.399C166.174 296.664 166.688 304.771 166.688 306.538C166.688 308.304 156.314 361.455 156.314 361.455C152.994 363.548 149.858 365.921 146.942 368.547C142.895 372.343 144.411 377.405 144.411 378.671C144.411 379.936 144.661 380.437 143.396 381.703C142.13 382.968 139.349 380.701 139.863 388.544C140.377 396.387 137.582 414.908 144.661 415.871C151.74 416.833 155.299 416.134 165.673 412.588C171.782 410.553 176.92 406.326 180.095 400.724V430.595H307.144C307.144 430.595 320.05 392.881 320.814 368.085C321.579 343.29 324.861 306.828 320.313 300C315.765 293.171 291.708 285.578 270.445 283.047C249.182 280.516 223.886 280.477 220.089 281.492Z" stroke="#263238" stroke-linecap="round" stroke-linejoin="round"/>
<path d="M180.095 357.408V401.199C180.095 401.199 177.814 373.358 171.75 366.266" stroke="#263238" stroke-linecap="round" stroke-linejoin="round"/>
<path d="M145.94 381.017C145.94 381.017 159.359 385.828 162.141 395.689C164.922 405.549 161.64 411.89 161.64 411.89" stroke="#263238" stroke-linecap="round" stroke-linejoin="round"/>
<path d="M129.884 397.613C129.884 397.613 139.678 393.158 140.43 392.34C141.181 391.523 149.802 391.932 153.401 401.107C156.999 410.281 154.389 414.684 152.597 415.673C150.804 416.662 141.405 419.403 138.808 419.403C136.211 419.403 125.296 401.014 129.884 397.613Z" fill="#FFD0F5" stroke="#263238" stroke-linecap="round" stroke-linejoin="round"/>
<path d="M223.372 278.961C223.372 278.961 219.074 430.2 220.841 430.2H251.726C251.726 430.2 251.977 319.957 253.994 309.583C256.011 299.209 260.835 280.727 260.071 275.665C259.306 270.603 224.901 273.385 224.901 273.385C224.126 275.16 223.611 277.038 223.372 278.961Z" fill="white"/>
<path d="M223.372 278.961C223.372 278.961 219.074 430.2 220.841 430.2H251.726C251.726 430.2 251.977 319.957 253.994 309.583C256.011 299.209 260.835 280.727 260.071 275.665C259.306 270.603 224.901 273.385 224.901 273.385C224.126 275.16 223.611 277.038 223.372 278.961Z" fill="#FFD0F5"/>
<path opacity="0.7" d="M223.372 278.961C223.372 278.961 219.074 430.2 220.841 430.2H251.726C251.726 430.2 251.977 319.957 253.994 309.583C256.011 299.209 260.835 280.727 260.071 275.665C259.306 270.603 224.901 273.385 224.901 273.385C224.126 275.16 223.611 277.038 223.372 278.961Z" fill="white"/>
<path d="M223.372 278.961C223.372 278.961 219.074 430.2 220.841 430.2H251.726C251.726 430.2 251.977 319.957 253.994 309.583C256.011 299.209 260.835 280.727 260.071 275.665C259.306 270.603 224.901 273.385 224.901 273.385C224.126 275.16 223.611 277.038 223.372 278.961Z" stroke="#263238" stroke-linecap="round" stroke-linejoin="round"/>
<path d="M253.809 310.835C243.678 314.092 232.844 314.488 222.502 311.982C221.342 357.197 219.602 430.2 220.841 430.2H251.727C251.727 430.2 251.964 326.878 253.809 310.835Z" fill="white"/>
<path d="M251.792 414.829C251.792 410.69 251.792 406.01 251.871 400.988H220.59C220.59 406.05 220.472 410.716 220.445 414.829H251.792Z" fill="#263238"/>
<path d="M221.078 374.624C220.986 379.369 220.893 383.996 220.814 388.465H252.003C252.003 383.943 252.082 379.303 252.135 374.624H221.078Z" fill="#263238"/>
<path d="M221.618 348.259C221.513 352.86 221.408 357.487 221.315 362.101H252.254C252.32 357.381 252.386 352.728 252.465 348.259H221.618Z" fill="#263238"/>
<path d="M222.251 321.895C222.146 326.337 222.027 330.977 221.908 335.736H252.715C252.834 330.556 252.979 325.863 253.137 321.895H222.251Z" fill="#263238"/>
<path d="M253.809 310.835C243.678 314.092 232.844 314.488 222.502 311.982C221.342 357.197 219.602 430.2 220.841 430.2H251.727C251.727 430.2 251.964 326.878 253.809 310.835Z" stroke="#263238" stroke-linecap="round" stroke-linejoin="round"/>
<path d="M238.057 213.604C238.057 213.604 233.496 228.025 213.762 240.943C213.762 240.943 212.444 258.911 217.809 272.317C223.174 285.723 237.292 296.361 243.369 295.096C249.446 293.83 261.336 280.16 265.383 270.551C269.43 260.941 269.443 243.725 269.443 243.725C269.443 243.725 248.932 230.358 238.057 213.604Z" fill="white" stroke="#263238" stroke-linecap="round" stroke-linejoin="round"/>
<path d="M236.541 262.509C236.541 262.509 236.027 270.854 237.292 271.618C238.558 272.383 240.838 272.119 241.089 269.338" stroke="#263238" stroke-linecap="round" stroke-linejoin="round"/>
<path d="M234.01 276.878C234.01 276.878 241.853 278.394 246.15 275.863" stroke="#263238" stroke-linecap="round" stroke-linejoin="round"/>
<path d="M233.852 237.529C233.852 237.529 223.227 234.695 218.666 242.604" stroke="#263238" stroke-linecap="round" stroke-linejoin="round"/>
<path d="M244.068 243.593C244.068 243.593 251.437 236.172 261.824 242.868" stroke="#263238" stroke-linecap="round" stroke-linejoin="round"/>
<path d="M221.605 253.387C221.605 253.387 226.417 257.948 234.26 254.706" stroke="#263238" stroke-linecap="round" stroke-linejoin="round"/>
<path d="M245.61 254.468C245.61 254.468 252.201 257.513 257.751 253.967" stroke="#263238" stroke-linecap="round" stroke-linejoin="round"/>
<path d="M226.575 266.042C232.443 266.042 237.2 261.285 237.2 255.417C237.2 249.549 232.443 244.793 226.575 244.793C220.707 244.793 215.95 249.549 215.95 255.417C215.95 261.285 220.707 266.042 226.575 266.042Z" stroke="#263238" stroke-width="0.75" stroke-linecap="round" stroke-linejoin="round"/>
<path d="M251.937 266.042C257.805 266.042 262.562 261.285 262.562 255.417C262.562 249.549 257.805 244.793 251.937 244.793C246.07 244.793 241.313 249.549 241.313 255.417C241.313 261.285 246.07 266.042 251.937 266.042Z" stroke="#263238" stroke-width="0.75" stroke-linecap="round" stroke-linejoin="round"/>
<path d="M237.2 255.417H241.299" stroke="#263238" stroke-width="0.75" stroke-linecap="round" stroke-linejoin="round"/>
<path d="M262.562 255.417H268.784" stroke="#263238" stroke-width="0.75" stroke-linecap="round" stroke-linejoin="round"/>
<path d="M213.103 255.417H215.924" stroke="#263238" stroke-width="0.75" stroke-linecap="round" stroke-linejoin="round"/>
<path d="M230.569 256.077C230.569 256.077 233.271 256.195 230.74 257.131C228.21 258.067 225.652 257.606 223.029 255.378C223.029 255.378 228.051 256.037 230.569 256.077Z" fill="#263238" stroke="#263238" stroke-linecap="round" stroke-linejoin="round"/>
<path d="M248.892 255.444C248.892 255.444 246.256 255.207 248.589 256.459C250.922 257.711 253.572 257.606 256.498 255.721C256.459 255.787 251.397 255.787 248.892 255.444Z" fill="#263238" stroke="#263238" stroke-linecap="round" stroke-linejoin="round"/>
<path d="M288.927 343.487L284.88 301.726C284.88 301.726 276.272 299.96 273.24 297.93C270.208 295.9 266.649 293.382 266.649 293.382C266.649 293.382 264.632 295.148 263.116 293.382C261.6 291.616 256.788 288.109 256.024 285.275C255.259 282.441 260.585 278.684 263.867 274.149C267.15 269.615 270.709 265.291 273.24 265.541C275.771 265.792 286.646 276.878 292.262 285.539C297.877 294.199 300.105 296.414 300.355 299.459C300.606 302.504 305.628 317.914 305.628 317.914L306.947 343.988L288.927 343.487Z" fill="white" stroke="#263238" stroke-linecap="round" stroke-linejoin="round"/>
<path d="M266.649 293.382C266.649 293.382 261.666 288.465 261.666 286.989" stroke="#263238" stroke-linecap="round" stroke-linejoin="round"/>
<path d="M280.319 319.325L285.13 346.15L290.403 316.279L310.901 314.012C310.901 314.012 310.717 345.9 310.717 353.994C310.717 362.087 314.263 399.05 315.278 411.995C316.293 424.94 309.451 429.132 300.092 429.448C290.733 429.765 283.126 421.104 280.095 403.638C277.063 386.171 280.595 354.284 279.08 348.971C277.564 343.659 271.17 321.895 271.17 321.895L280.319 319.325Z" fill="#FFD0F5"/>
<g style="mix-blend-mode:multiply" opacity="0.24">
<path d="M303.308 429.132C310.941 427.998 316.135 423.319 315.251 411.995C314.236 399.09 310.69 362.14 310.69 353.994C310.69 345.847 310.941 314.012 310.941 314.012L307.619 314.381C305.707 320.748 295.056 358.12 300.474 384.8C306.433 414.051 311.389 417.017 303.453 428.921L303.308 429.132Z" fill="black"/>
</g>
<path d="M280.319 319.325L285.13 346.15L290.403 316.279L310.901 314.012C310.901 314.012 310.717 345.9 310.717 353.994C310.717 362.087 314.263 399.05 315.278 411.995C316.293 424.94 309.451 429.132 300.092 429.448C290.733 429.765 283.126 421.104 280.095 403.638C277.063 386.171 280.595 354.284 279.08 348.971C277.564 343.659 271.17 321.895 271.17 321.895L280.319 319.325Z" stroke="#263238" stroke-linecap="round" stroke-linejoin="round"/>
<path d="M119.404 423.859C119.404 423.859 118.798 427.932 122.489 428.855C126.18 429.778 135.051 427.471 135.789 425.573C136.009 425.052 136.071 424.479 135.968 423.924C135.865 423.368 135.601 422.855 135.209 422.449H127.116C127.116 422.449 121.012 420.563 119.404 423.859Z" fill="white" stroke="#263238" stroke-linecap="round" stroke-linejoin="round"/>
<path d="M83.1663 379.936L116.715 403.242L119.219 399.907L85.5127 376.403L83.1663 379.936Z" fill="#263238" stroke="#263238" stroke-linecap="round" stroke-linejoin="round"/>
<path d="M90.9569 385.341L93.567 382.019L85.5127 376.403L83.1663 379.936L90.9569 385.341Z" fill="white" stroke="#263238" stroke-linecap="round" stroke-linejoin="round"/>
<path d="M124.664 423.503C129.915 423.256 134.913 421.17 138.782 417.611C144.793 411.758 145.201 407.843 137.081 399.433C128.961 391.022 111.205 400.869 110.638 404.587C110.071 408.304 124.664 423.503 124.664 423.503Z" fill="white" stroke="#263238" stroke-linecap="round" stroke-linejoin="round"/>
<path d="M142.631 408.304C142.631 408.304 140.337 413.089 138.162 414.895C135.987 416.701 132.533 417.189 130.49 414.276C128.447 411.362 126.351 402.319 124.571 402.135C122.792 401.95 113.92 399.037 111.389 395.544C108.858 392.051 108.99 389.348 114.566 391.009C120.142 392.67 135.064 394.608 135.064 394.608C135.064 394.608 138.597 396.73 141.049 404.178" fill="white"/>
<path d="M142.631 408.304C142.631 408.304 140.337 413.089 138.162 414.895C135.987 416.701 132.533 417.189 130.49 414.276C128.447 411.362 126.351 402.319 124.571 402.135C122.792 401.95 113.92 399.037 111.389 395.544C108.858 392.051 108.99 389.348 114.566 391.009C120.142 392.67 135.064 394.608 135.064 394.608C135.064 394.608 138.597 396.73 141.049 404.178" stroke="#263238" stroke-linecap="round" stroke-linejoin="round"/>
<path d="M113.933 419.509C114.724 420.484 117.321 424.9 118.547 425.204C119.773 425.507 127.3 420.722 130.2 417.07C133.1 413.419 127.696 408.357 126.153 407.645C124.611 406.933 113.933 419.509 113.933 419.509Z" fill="white" stroke="#263238" stroke-linecap="round" stroke-linejoin="round"/>
<path d="M110.097 406.327C110.097 406.327 103.506 410.281 105.075 412.997C106.644 415.712 111.917 419.838 113.604 419.113C115.291 418.388 126.654 413.102 126.601 410.216C126.549 407.329 126.364 403.888 120.551 404.363C117.009 404.659 113.506 405.317 110.097 406.327Z" fill="white" stroke="#263238" stroke-linecap="round" stroke-linejoin="round"/>
<path d="M103.506 395.372C103.506 395.372 100.303 401.884 103.243 404.705C106.182 407.526 124.334 407.46 125.257 404.139C126.18 400.817 119.378 400.105 114.382 397.956C109.386 395.807 104.205 393.83 103.506 395.372Z" fill="white" stroke="#263238" stroke-linecap="round" stroke-linejoin="round"/>
<path d="M173.899 429.29C173.899 429.29 173.398 420.682 165.805 417.65C158.212 414.618 154.152 415.871 137.2 420.432C126.516 423.226 115.576 424.922 104.548 425.494V429.29H173.899Z" fill="white" stroke="#263238" stroke-linecap="round" stroke-linejoin="round"/>
<path d="M173.622 429.29C173.622 429.29 174.123 420.682 181.716 417.65C189.309 414.618 193.356 415.871 210.321 420.432C221 423.226 231.937 424.922 242.96 425.494V429.29H173.622Z" fill="white" stroke="#263238" stroke-linecap="round" stroke-linejoin="round"/>
<path d="M245.781 427.774H102.781V430.555H245.781V427.774Z" fill="#263238" stroke="#263238" stroke-linecap="round" stroke-linejoin="round"/>
<path d="M19.3909 430.555H479" stroke="#263238" stroke-linecap="round" stroke-linejoin="round"/>
<path d="M473.727 354.125H376.285L343.131 430.806H440.574L473.727 354.125Z" fill="white" stroke="#263238" stroke-linecap="round" stroke-linejoin="round"/>
<path d="M477.524 354.125H380.081L346.928 430.806H444.37L477.524 354.125Z" fill="#263238" stroke="#263238" stroke-linecap="round" stroke-linejoin="round"/>
<path d="M420.023 400.79C417.518 404.745 412.826 406.3 409.543 404.218C406.261 402.135 405.589 397.244 408.12 393.276C410.65 389.309 415.317 387.779 418.665 389.849C422.014 391.919 422.528 396.836 420.023 400.79Z" fill="white" stroke="#FFD0F5" stroke-linecap="round" stroke-linejoin="round"/>
<path d="M344.397 427.774H273.279V430.556H344.397V427.774Z" fill="white" stroke="#263238" stroke-linecap="round" stroke-linejoin="round"/>
</svg>
