<svg width="491" height="426" viewBox="0 0 491 426" fill="none" xmlns="http://www.w3.org/2000/svg">
<path d="M1 418.402H489.901" stroke="#263238" stroke-linecap="round" stroke-linejoin="round"/>
<path d="M377.251 253.48V253.605C377.251 253.81 377.296 254.026 377.387 254.253C377.896 256.744 378.275 259.26 378.524 261.79C378.74 263.962 378.911 266.44 378.956 269.203C379.064 275.587 378.627 281.969 377.649 288.279C377.399 289.939 377.103 291.689 376.751 293.44C376.194 296.328 375.512 299.352 374.67 302.478C374.295 303.933 373.863 305.423 373.408 306.923L372.874 308.754C372.67 309.492 372.465 310.231 372.272 311.027C370.965 316.078 369.921 321.193 369.145 326.352C368.179 332.775 367.576 339.153 367.247 345.189C366.803 353.238 366.826 360.673 367.019 366.79C367.014 366.892 367.014 366.994 367.019 367.097C367.224 373.315 367.611 378.192 367.872 380.966C368.02 382.592 368.122 383.513 368.134 383.569" stroke="#263238" stroke-linecap="round" stroke-linejoin="round"/>
<path d="M377.285 253.639C375.583 252.127 373.532 251.06 371.317 250.536L377.285 253.639Z" fill="white"/>
<path d="M377.285 253.639C375.583 252.127 373.532 251.06 371.317 250.536" stroke="#263238" stroke-linecap="round" stroke-linejoin="round"/>
<path d="M378.558 261.824L381.582 259.085" stroke="#263238" stroke-linecap="round" stroke-linejoin="round"/>
<path d="M374.704 302.489C374.546 301.692 374.31 300.911 374 300.159C373.552 299.056 372.942 298.025 372.192 297.101C371.632 296.406 370.995 295.777 370.294 295.225" stroke="#263238" stroke-linecap="round" stroke-linejoin="round"/>
<path d="M372.283 311.016C372.711 309.954 373.353 308.991 374.169 308.188C374.984 307.384 375.956 306.756 377.024 306.343" stroke="#263238" stroke-linecap="round" stroke-linejoin="round"/>
<path d="M367.031 353.306C368.043 352.079 368.804 347.429 369.214 344.928C369.316 344.337 369.395 343.791 369.475 343.461" fill="white"/>
<path d="M367.031 353.306C368.043 352.079 368.804 347.429 369.214 344.928C369.316 344.337 369.395 343.791 369.475 343.461" stroke="#263238" stroke-linecap="round" stroke-linejoin="round"/>
<path d="M359.243 361.742C359.58 361.708 359.919 361.708 360.255 361.742C361.744 361.887 363.166 362.434 364.367 363.325C365.569 364.216 366.505 365.418 367.076 366.801" fill="white"/>
<path d="M359.243 361.742C359.58 361.708 359.919 361.708 360.255 361.742C361.744 361.887 363.166 362.434 364.367 363.325C365.569 364.216 366.505 365.418 367.076 366.801" stroke="#263238" stroke-linecap="round" stroke-linejoin="round"/>
<path d="M376.785 293.531C376.785 293.531 377.319 275.08 367.19 268.384" stroke="#263238" stroke-linecap="round" stroke-linejoin="round"/>
<path d="M377.649 333.082C378.979 337.391 369.691 345.587 369.691 345.587C369.691 345.587 357.424 344.052 356.049 339.755C354.673 335.458 357.822 328.387 363.779 326.568C369.736 324.749 376.364 328.773 377.649 333.082Z" fill="#EDCEF1"/>
<path d="M387.983 280.867C386.846 285.414 378.024 288.677 378.024 288.677C378.024 288.677 371.965 281.594 373.102 277.024C374.238 272.454 379.138 267.429 383.254 268.486C387.369 269.544 389.165 276.297 387.983 280.867Z" fill="#EDCEF1"/>
<path d="M352.752 349.157C358.266 351.294 361.642 361.048 361.642 361.048C361.642 361.048 352.547 365.948 347.045 363.8C341.543 361.651 335.677 355.603 337.268 351.567C338.86 347.531 347.238 346.963 352.752 349.157Z" fill="#EDCEF1"/>
<path d="M364.837 295.498C365.953 296.436 367.232 297.161 368.611 297.635C369.303 297.859 370.044 297.889 370.751 297.72C371.459 297.552 372.107 297.192 372.624 296.68C373.761 295.327 373.488 293.27 372.749 291.576C371.271 288.336 365.837 282.822 361.665 284.402C355.64 286.71 362.154 293.531 364.837 295.498Z" fill="#EDCEF1"/>
<path d="M377.171 303.763C376.376 304.74 375.534 305.98 375.978 307.173C376.225 307.675 376.631 308.08 377.133 308.327C377.634 308.574 378.204 308.648 378.752 308.537C379.842 308.279 380.86 307.777 381.73 307.071C383.856 305.593 388.222 302.523 385.436 299.602C382.651 296.68 378.786 301.705 377.171 303.763Z" fill="#EDCEF1"/>
<path d="M359.38 262.529C358.921 262.556 358.482 262.726 358.125 263.016C357.768 263.306 357.511 263.7 357.39 264.144C357.208 265.201 358.084 266.122 358.925 266.77C361.04 268.407 367.395 272.795 368.804 268.555C370.146 264.553 362.176 262.222 359.38 262.529Z" fill="#EDCEF1"/>
<path d="M371.078 248.591C369.771 248.716 368.463 248.239 367.144 248.319C365.826 248.398 364.382 249.455 364.666 250.751C364.95 252.047 366.417 252.332 367.622 252.4C369.697 252.533 371.78 252.392 373.818 251.979C374.3 251.933 374.747 251.706 375.068 251.343C375.603 250.558 374.761 249.512 373.852 249.239C372.918 249.115 372 248.894 371.112 248.58L371.078 248.591Z" fill="#EDCEF1"/>
<path d="M383.879 257.607C385.186 257.607 386.459 257.084 387.778 257.072C389.097 257.061 390.62 258.027 390.404 259.346C390.188 260.665 388.779 261.04 387.574 261.188C385.514 261.461 383.426 261.461 381.366 261.188C380.879 261.177 380.414 260.977 380.07 260.631C379.491 259.892 380.264 258.789 381.139 258.448C382.066 258.275 382.97 257.996 383.833 257.618L383.879 257.607Z" fill="#EDCEF1"/>
<path d="M382.583 354.489C382.884 354.175 383.287 353.977 383.72 353.932C384.012 353.96 384.285 354.088 384.493 354.296C384.7 354.503 384.829 354.776 384.857 355.069C384.919 355.63 384.849 356.199 384.652 356.728C383.754 359.718 373.75 381.307 371.442 377.43C370.089 375.157 373.431 367.551 374.42 365.403C376.308 361.21 379.094 357.484 382.583 354.489Z" fill="#EDCEF1"/>
<path d="M377.706 254.878C377.706 254.878 377.103 249.637 378.365 249.194" stroke="#263238" stroke-linecap="round" stroke-linejoin="round"/>
<path d="M376.592 249.41C377.236 247.559 378.349 245.907 379.82 244.613C381.401 243.476 383.936 243.385 385.084 244.965C386.369 246.727 385.084 249.399 383.117 250.342C381.15 251.286 378.831 251.002 376.671 250.695C376.671 250.376 376.671 250.058 376.671 249.74L376.592 249.41Z" fill="#EDCEF1"/>
<path d="M381.98 418.141C371.264 419.948 360.32 419.948 349.603 418.141L337.007 380.977H394.577L381.98 418.141Z" fill="white" stroke="#263238" stroke-linecap="round" stroke-linejoin="round"/>
<path d="M162.273 149.64V149.765C162.319 149.97 162.364 150.186 162.41 150.413C162.925 152.903 163.304 155.42 163.546 157.951C163.762 160.122 163.922 162.6 163.978 165.363C164.095 171.731 163.669 178.098 162.705 184.394C162.455 186.054 162.159 187.804 161.807 189.555C161.25 192.443 160.557 195.467 159.727 198.593C159.34 200.048 158.919 201.537 158.465 203.038C158.283 203.652 158.101 204.255 157.93 204.868C157.76 205.482 157.51 206.346 157.317 207.142" stroke="#263238" stroke-linecap="round" stroke-linejoin="round"/>
<path d="M162.296 149.8C161.48 149.085 160.588 148.464 159.636 147.946C158.586 147.393 157.47 146.973 156.316 146.696" fill="white"/>
<path d="M162.296 149.8C161.48 149.085 160.588 148.464 159.636 147.946C158.586 147.393 157.47 146.973 156.316 146.696" stroke="#263238" stroke-linecap="round" stroke-linejoin="round"/>
<path d="M163.569 157.985L166.605 155.245" stroke="#263238" stroke-linecap="round" stroke-linejoin="round"/>
<path d="M159.727 198.65C159.564 197.851 159.325 197.071 159.01 196.319C158.562 195.216 157.953 194.186 157.203 193.261C156.643 192.566 156.006 191.937 155.304 191.385" stroke="#263238" stroke-linecap="round" stroke-linejoin="round"/>
<path d="M157.305 207.131C157.729 206.068 158.368 205.105 159.182 204.301C159.996 203.497 160.967 202.87 162.034 202.458" stroke="#263238" stroke-linecap="round" stroke-linejoin="round"/>
<path d="M152.042 249.467C153.053 248.239 153.826 243.589 154.236 241.088C154.327 240.497 154.418 239.951 154.486 239.622" fill="white"/>
<path d="M152.042 249.467C153.053 248.239 153.826 243.589 154.236 241.088C154.327 240.497 154.418 239.951 154.486 239.622" stroke="#263238" stroke-linecap="round" stroke-linejoin="round"/>
<path d="M144.254 257.857C144.594 257.823 144.937 257.823 145.277 257.857C146.765 258.005 148.185 258.554 149.386 259.445C150.587 260.335 151.525 261.535 152.098 262.916" fill="white"/>
<path d="M144.254 257.857C144.594 257.823 144.937 257.823 145.277 257.857C146.765 258.005 148.185 258.554 149.386 259.445C150.587 260.335 151.525 261.535 152.098 262.916" stroke="#263238" stroke-linecap="round" stroke-linejoin="round"/>
<path d="M161.796 189.646C161.796 189.646 162.341 171.195 152.201 164.499" stroke="#263238" stroke-linecap="round" stroke-linejoin="round"/>
<path d="M162.717 229.242C164.035 233.551 154.759 241.748 154.759 241.748C154.759 241.748 142.481 240.213 141.116 235.916C139.752 231.618 142.901 224.547 148.847 222.728C154.793 220.909 161.386 224.945 162.717 229.242Z" fill="#EDCEF1"/>
<path d="M173.016 177.027C171.88 181.574 163.058 184.837 163.058 184.837C163.058 184.837 156.93 177.755 158.112 173.184C159.295 168.614 164.138 163.589 168.253 164.647C172.368 165.704 174.153 172.457 173.016 177.027Z" fill="#EDCEF1"/>
<path d="M137.774 245.317C143.288 247.466 146.676 257.209 146.676 257.209C146.676 257.209 137.581 262.109 132.067 259.96C126.553 257.811 120.699 251.763 122.302 247.727C123.905 243.692 132.249 243.169 137.774 245.317Z" fill="#EDCEF1"/>
<path d="M149.859 191.658C150.971 192.596 152.247 193.321 153.622 193.795C154.314 194.02 155.054 194.049 155.762 193.881C156.47 193.712 157.118 193.352 157.635 192.841C158.772 191.488 158.499 189.43 157.76 187.736C156.282 184.496 150.859 178.982 146.676 180.563C140.662 182.848 147.164 189.669 149.859 191.658Z" fill="#EDCEF1"/>
<path d="M162.182 199.934C161.398 200.912 160.557 202.208 160.989 203.345C161.236 203.846 161.642 204.252 162.144 204.499C162.645 204.746 163.214 204.819 163.762 204.709C164.854 204.453 165.872 203.951 166.741 203.243C168.867 201.776 173.232 198.695 170.447 195.774C167.662 192.852 163.853 197.865 162.182 199.934Z" fill="#EDCEF1"/>
<path d="M144.391 158.69C143.932 158.718 143.494 158.889 143.137 159.178C142.781 159.468 142.523 159.861 142.401 160.304C142.219 161.361 143.095 162.282 143.947 162.93C146.062 164.567 152.405 168.955 153.826 164.715C155.156 160.713 147.199 158.383 144.391 158.69Z" fill="#EDCEF1"/>
<path d="M156.089 144.752C154.781 144.877 153.474 144.399 152.167 144.479C150.859 144.559 149.393 145.616 149.688 146.912C149.984 148.208 151.428 148.492 152.644 148.56C154.715 148.693 156.795 148.552 158.829 148.14C159.314 148.094 159.765 147.867 160.09 147.503C160.613 146.719 159.772 145.673 158.874 145.4C157.937 145.276 157.015 145.055 156.123 144.741L156.089 144.752Z" fill="#EDCEF1"/>
<path d="M168.89 153.767C170.208 153.767 171.482 153.244 172.789 153.233C174.096 153.221 175.631 154.188 175.427 155.506C175.222 156.825 173.789 157.2 172.584 157.348C170.524 157.621 168.437 157.621 166.377 157.348C165.889 157.337 165.425 157.137 165.081 156.791C164.501 156.052 165.274 154.949 166.161 154.608C167.087 154.432 167.991 154.154 168.856 153.778L168.89 153.767Z" fill="#EDCEF1"/>
<path d="M167.594 250.649C167.896 250.337 168.298 250.14 168.73 250.092C169.02 250.126 169.29 250.257 169.496 250.463C169.703 250.669 169.833 250.939 169.867 251.229C169.926 251.792 169.852 252.36 169.651 252.889C168.765 255.879 158.749 277.467 156.453 273.591C155.088 271.317 158.431 263.712 159.42 261.563C161.31 257.369 164.101 253.643 167.594 250.649Z" fill="#EDCEF1"/>
<path d="M162.717 151.061C162.717 151.061 162.114 145.821 163.387 145.377" stroke="#263238" stroke-linecap="round" stroke-linejoin="round"/>
<path d="M161.648 145.57C162.284 143.715 163.398 142.061 164.877 140.773C166.457 139.636 168.981 139.545 170.129 141.125C171.413 142.887 170.129 145.559 168.162 146.503C166.195 147.446 163.888 147.162 161.728 146.855C161.728 146.537 161.728 146.218 161.728 145.9L161.648 145.57Z" fill="#EDCEF1"/>
<path d="M18.2346 275.307V162.975" stroke="#263238" stroke-linecap="round" stroke-linejoin="round"/>
<path d="M368.952 275.307H355.071" stroke="#263238" stroke-linecap="round" stroke-linejoin="round"/>
<path d="M477.805 275.307H449.532" stroke="#263238" stroke-linecap="round" stroke-linejoin="round"/>
<path d="M353.798 104.655H403.899V56.9303" stroke="#263238" stroke-linecap="round" stroke-linejoin="round"/>
<path d="M61.7872 90.0808H115.014V128.904H173.357" stroke="#263238" stroke-linecap="round" stroke-linejoin="round"/>
<path d="M30.3875 221.557V135.771" stroke="#263238" stroke-linecap="round" stroke-linejoin="round"/>
<path d="M54.1703 98.539V165.772" stroke="#263238" stroke-linecap="round" stroke-linejoin="round"/>
<path d="M77.9418 98.539V157.973" stroke="#263238" stroke-linecap="round" stroke-linejoin="round"/>
<path d="M101.713 98.539V202.504" stroke="#263238" stroke-linecap="round" stroke-linejoin="round"/>
<path d="M215.591 83.7941V15.4354H312.371V83.7941" stroke="#263238" stroke-linecap="round" stroke-linejoin="round"/>
<path d="M222.685 49.3931V23.5526H240.579" stroke="#263238" stroke-linecap="round" stroke-linejoin="round"/>
<path d="M244.513 49.3931V23.5526H262.407" stroke="#263238" stroke-linecap="round" stroke-linejoin="round"/>
<path d="M266.34 49.3931V23.5526H284.234" stroke="#263238" stroke-linecap="round" stroke-linejoin="round"/>
<path d="M288.168 49.3931V23.5526H306.062" stroke="#263238" stroke-linecap="round" stroke-linejoin="round"/>
<path d="M222.685 83.794V57.9535H240.579" stroke="#263238" stroke-linecap="round" stroke-linejoin="round"/>
<path d="M244.513 83.794V57.9535H262.407" stroke="#263238" stroke-linecap="round" stroke-linejoin="round"/>
<path d="M266.34 83.794V57.9535H284.234" stroke="#263238" stroke-linecap="round" stroke-linejoin="round"/>
<path d="M288.168 83.794V57.9535H306.062" stroke="#263238" stroke-linecap="round" stroke-linejoin="round"/>
<path d="M411.652 62.842V148.503" stroke="#263238" stroke-linecap="round" stroke-linejoin="round"/>
<path d="M446.792 269.032H449.532" stroke="#263238" stroke-linecap="round" stroke-linejoin="round"/>
<path d="M432.718 87.4433V183.348" stroke="#263238" stroke-linecap="round" stroke-linejoin="round"/>
<path d="M453.795 244.544V269.032H470.609" stroke="#263238" stroke-linecap="round" stroke-linejoin="round"/>
<path d="M453.795 118.707V183.837" stroke="#263238" stroke-linecap="round" stroke-linejoin="round"/>
<path d="M474.861 168.125V269.032H478.692" stroke="#263238" stroke-linecap="round" stroke-linejoin="round"/>
<path d="M218.138 277.365H1V418.402H218.138V277.365Z" fill="white" stroke="#263238" stroke-linecap="round" stroke-linejoin="round"/>
<path d="M1 277.365L109.569 347.884L218.138 277.365H1Z" fill="white" stroke="#263238" stroke-linecap="round" stroke-linejoin="round"/>
<path d="M76.93 326.681L1 418.402" stroke="#263238" stroke-linecap="round" stroke-linejoin="round"/>
<path d="M142.799 326.681L218.729 418.402" stroke="#263238" stroke-linecap="round" stroke-linejoin="round"/>
<path d="M334.335 97.402H283.859C282.405 97.4038 280.978 97.7948 279.727 98.5345C278.475 99.2742 277.445 100.336 276.742 101.608C275.502 103.847 273.685 105.713 271.48 107.012C269.275 108.311 266.762 108.996 264.203 108.996C261.644 108.996 259.131 108.311 256.926 107.012C254.721 105.713 252.904 103.847 251.663 101.608C250.967 100.319 249.934 99.2423 248.675 98.4918C247.416 97.7414 245.978 97.3452 244.513 97.3452H194.094C192.71 97.3272 191.336 97.5819 190.05 98.095C188.765 98.608 187.593 99.3692 186.601 100.335C185.61 101.301 184.819 102.453 184.273 103.725C183.727 104.996 183.436 106.363 183.419 107.747V392.437C183.457 395.231 184.603 397.895 186.605 399.846C188.606 401.796 191.299 402.872 194.094 402.839H334.335C337.13 402.872 339.825 401.796 341.828 399.846C343.831 397.896 344.979 395.232 345.021 392.437V107.804C344.982 105.008 343.835 102.342 341.831 100.391C339.827 98.4408 337.131 97.3656 334.335 97.402Z" fill="#EDCEF1"/>
<path d="M349.944 104.655C349.95 102.737 349.577 100.837 348.848 99.0638C348.118 97.2903 347.045 95.6783 345.691 94.3201C344.337 92.9619 342.729 91.8843 340.957 91.149C339.186 90.4138 337.287 90.0353 335.37 90.0353H193.07C191.157 90.0338 189.262 90.4094 187.494 91.1406C185.726 91.8717 184.119 92.9442 182.765 94.2967C181.412 95.6491 180.338 97.255 179.606 99.0226C178.873 100.79 178.496 102.685 178.496 104.598V403.805C178.496 407.668 180.03 411.372 182.761 414.103C185.492 416.834 189.197 418.368 193.059 418.368H335.37C339.233 418.368 342.938 416.834 345.671 414.103C348.404 411.373 349.941 407.669 349.944 403.805V104.655ZM345.021 392.437C344.979 395.232 343.831 397.896 341.828 399.846C339.825 401.796 337.13 402.872 334.335 402.839H194.094C191.299 402.872 188.606 401.796 186.605 399.846C184.603 397.895 183.457 395.231 183.419 392.437V107.804C183.436 106.42 183.727 105.053 184.273 103.782C184.819 102.51 185.61 101.358 186.601 100.392C187.593 99.426 188.765 98.6648 190.05 98.1518C191.336 97.6388 192.71 97.384 194.094 97.402H244.535C246 97.4016 247.436 97.7978 248.693 98.5484C249.95 99.299 250.981 100.376 251.675 101.665C252.915 103.904 254.732 105.77 256.937 107.069C259.142 108.368 261.655 109.053 264.214 109.053C266.774 109.053 269.286 108.368 271.491 107.069C273.696 105.77 275.513 103.904 276.754 101.665C277.454 100.391 278.484 99.3282 279.736 98.5882C280.988 97.8483 282.416 97.4582 283.87 97.4589H334.346C335.73 97.4409 337.104 97.6956 338.39 98.2086C339.675 98.7217 340.847 99.4829 341.838 100.449C342.83 101.415 343.621 102.567 344.167 103.838C344.713 105.11 345.004 106.477 345.021 107.861V392.437Z" fill="#263238"/>
<path opacity="0.2" d="M301.594 90.0807L207.065 418.391L244.604 418.357L335.631 90.0807H301.594Z" fill="white"/>
<path opacity="0.2" d="M287.497 90.0807L187.557 418.402L193.025 418.368L291.089 90.0807H287.497Z" fill="white"/>
<path d="M289.714 334.151C289.784 337.405 289.201 340.64 288.002 343.666C286.802 346.692 285.009 349.447 282.728 351.769C280.447 354.092 277.724 355.934 274.721 357.188C271.717 358.442 268.492 359.082 265.237 359.07C258.596 359.045 252.227 356.425 247.491 351.769C242.754 347.113 240.025 340.791 239.886 334.151C239.818 330.897 240.401 327.663 241.601 324.639C242.802 321.614 244.595 318.86 246.876 316.539C249.157 314.218 251.879 312.377 254.882 311.124C257.885 309.871 261.108 309.231 264.362 309.242C271.003 309.265 277.371 311.882 282.108 316.536C286.845 321.19 289.574 327.512 289.714 334.151Z" fill="white" stroke="#263238" stroke-linecap="round" stroke-linejoin="round"/>
<path d="M256.631 352.749C254.318 351.894 252.196 350.588 250.39 348.907C248.57 347.158 247.16 345.026 246.263 342.666C245.242 340.02 244.736 337.203 244.774 334.367C244.76 331.949 245.188 329.548 246.036 327.284C246.807 325.193 247.964 323.264 249.447 321.6C252.369 318.403 256.144 316.108 260.326 314.983C262.38 314.43 264.498 314.151 266.624 314.153C268.39 314.145 270.151 314.355 271.865 314.779C273.52 315.185 275.103 315.84 276.56 316.723C278.003 317.589 279.297 318.684 280.392 319.963C281.532 321.342 282.404 322.923 282.961 324.624C283.598 326.564 283.913 328.596 283.893 330.638C283.869 334.584 282.447 338.395 279.88 341.392C278.776 342.644 277.469 343.701 276.015 344.519C274.761 345.238 273.345 345.629 271.899 345.655C270.901 345.669 269.926 345.353 269.125 344.757C268.723 344.46 268.396 344.073 268.169 343.627C267.942 343.181 267.822 342.688 267.818 342.188C267.072 343.322 266.049 344.246 264.845 344.873C263.641 345.5 262.297 345.808 260.94 345.769C259.873 345.817 258.808 345.625 257.825 345.208C256.841 344.791 255.964 344.159 255.256 343.359C253.837 341.709 253.086 339.588 253.153 337.413C253.162 335.623 253.473 333.848 254.074 332.161C254.671 330.461 255.518 328.86 256.586 327.409C257.651 325.983 259.007 324.801 260.565 323.942C262.122 323.063 263.881 322.604 265.669 322.612C266.913 322.599 268.139 322.896 269.239 323.476C270.307 324.045 271.173 324.93 271.717 326.011L271.945 325.249C272.126 324.716 272.512 324.276 273.017 324.026C273.522 323.777 274.105 323.738 274.639 323.919C274.846 323.989 275.041 324.089 275.219 324.214C275.388 324.35 275.523 324.523 275.612 324.721C275.701 324.919 275.742 325.135 275.731 325.351C275.731 325.564 275.696 325.775 275.628 325.977L271.945 338.232C271.62 339.165 271.41 340.135 271.32 341.119C271.286 341.303 271.297 341.492 271.354 341.67C271.411 341.848 271.51 342.01 271.644 342.14C271.778 342.27 271.941 342.366 272.121 342.418C272.3 342.47 272.49 342.477 272.672 342.438C273.976 342.355 275.197 341.773 276.083 340.812C277.311 339.598 278.255 338.127 278.845 336.504C279.551 334.731 279.914 332.841 279.914 330.933C279.929 329.253 279.684 327.581 279.187 325.977C278.769 324.593 278.106 323.296 277.231 322.145C276.402 321.098 275.398 320.202 274.264 319.497C273.133 318.783 271.898 318.25 270.603 317.916C269.275 317.567 267.907 317.391 266.533 317.393C264.791 317.396 263.058 317.641 261.384 318.121C259.659 318.609 258.016 319.349 256.506 320.315C254.985 321.275 253.607 322.447 252.414 323.794C251.185 325.213 250.229 326.847 249.594 328.614C248.88 330.538 248.522 332.576 248.537 334.628C248.5 337.058 248.94 339.473 249.833 341.733C250.603 343.69 251.817 345.442 253.38 346.849C254.89 348.16 256.633 349.174 258.519 349.839C260.508 350.543 262.604 350.897 264.714 350.885C266.97 350.885 269.212 350.544 271.365 349.873C271.58 349.796 271.807 349.757 272.036 349.759C272.249 349.756 272.461 349.798 272.656 349.882C272.852 349.967 273.028 350.091 273.173 350.248C273.318 350.399 273.431 350.577 273.508 350.773C273.584 350.968 273.62 351.176 273.616 351.385C273.643 351.716 273.55 352.045 273.354 352.313C273.157 352.58 272.871 352.767 272.547 352.84C269.864 353.661 267.077 354.09 264.271 354.114C261.664 354.11 259.078 353.648 256.631 352.749ZM266.022 340.96C267.146 340.153 267.979 339.005 268.398 337.686L270.774 329.33L270.615 328.989C270.467 328.715 270.288 328.46 270.08 328.228C269.795 327.899 269.484 327.595 269.148 327.318C268.722 326.978 268.242 326.713 267.727 326.534C266.382 326.064 264.909 326.117 263.6 326.681C262.883 326.985 262.225 327.412 261.656 327.943C261.065 328.495 260.538 329.113 260.087 329.785C259.636 330.485 259.255 331.227 258.951 332.002C258.631 332.777 258.384 333.58 258.212 334.401C258.04 335.181 257.952 335.978 257.95 336.777C257.94 337.29 257.971 337.803 258.041 338.311C258.094 338.764 258.193 339.209 258.337 339.642C258.461 340.043 258.641 340.426 258.871 340.778C259.077 341.096 259.339 341.373 259.644 341.597C259.969 341.833 260.336 342.006 260.724 342.108C261.178 342.241 261.65 342.303 262.122 342.29C263.545 342.308 264.933 341.852 266.067 340.994L266.022 340.96Z" fill="#EDCEF1" stroke="#263238" stroke-linecap="round" stroke-linejoin="round"/>
<path d="M289.157 248.739C289.225 251.993 288.642 255.227 287.441 258.251C286.241 261.276 284.447 264.03 282.167 266.351C279.886 268.672 277.164 270.513 274.161 271.766C271.158 273.019 267.934 273.659 264.68 273.648C258.04 273.625 251.671 271.008 246.934 266.354C242.198 261.7 239.468 255.378 239.329 248.739C239.257 245.485 239.838 242.249 241.038 239.222C242.237 236.195 244.03 233.44 246.311 231.117C248.592 228.795 251.315 226.952 254.32 225.699C257.324 224.446 260.55 223.807 263.805 223.82C270.447 223.845 276.815 226.465 281.552 231.121C286.288 235.776 289.017 242.099 289.157 248.739Z" fill="white" stroke="#263238" stroke-linecap="round" stroke-linejoin="round"/>
<path d="M279.88 246.466C272.07 241.35 256.757 241.35 249.31 246.466C247.948 246.721 246.724 247.457 245.86 248.54C244.996 249.624 244.55 250.981 244.604 252.366C244.717 255.674 258.462 255.674 258.348 252.366C258.281 250.983 257.753 249.662 256.847 248.614C262.002 247.5 267.336 247.5 272.49 248.614C271.652 249.681 271.217 251.01 271.263 252.366C271.376 255.674 285.121 255.674 284.996 252.366C284.931 250.95 284.391 249.598 283.463 248.527C282.534 247.456 281.272 246.73 279.88 246.466Z" fill="#EDCEF1" stroke="#263238" stroke-linecap="round" stroke-linejoin="round"/>
<path d="M289.157 165.772C289.293 171.9 285.951 177.379 280.585 181.028V195.91L269.91 185.223C268.184 185.532 266.434 185.684 264.68 185.678C250.925 185.678 239.567 176.765 239.329 165.772C239.09 154.779 250.038 145.877 263.805 145.877C277.572 145.877 288.975 154.835 289.157 165.772Z" fill="white" stroke="#263238" stroke-linecap="round" stroke-linejoin="round"/>
<path d="M253.63 165.772C253.632 166.411 253.445 167.036 253.092 167.569C252.738 168.101 252.235 168.517 251.645 168.763C251.055 169.009 250.406 169.075 249.779 168.951C249.152 168.828 248.575 168.522 248.123 168.07C247.67 167.619 247.361 167.044 247.236 166.418C247.11 165.791 247.174 165.141 247.418 164.551C247.662 163.96 248.075 163.455 248.607 163.1C249.138 162.744 249.763 162.555 250.402 162.555C251.256 162.555 252.075 162.893 252.681 163.496C253.286 164.099 253.627 164.918 253.63 165.772Z" fill="#EDCEF1" stroke="#263238" stroke-linecap="round" stroke-linejoin="round"/>
<path d="M267.443 165.772C267.445 166.411 267.258 167.036 266.904 167.569C266.551 168.101 266.047 168.517 265.458 168.763C264.868 169.009 264.218 169.075 263.591 168.951C262.964 168.828 262.388 168.522 261.935 168.07C261.483 167.619 261.174 167.044 261.049 166.418C260.923 165.791 260.986 165.141 261.23 164.551C261.474 163.96 261.888 163.455 262.419 163.1C262.951 162.744 263.575 162.555 264.214 162.555C265.069 162.555 265.888 162.893 266.493 163.496C267.098 164.099 267.44 164.918 267.443 165.772Z" fill="#EDCEF1" stroke="#263238" stroke-linecap="round" stroke-linejoin="round"/>
<path d="M281.256 165.772C281.258 166.411 281.07 167.036 280.717 167.569C280.364 168.101 279.86 168.517 279.27 168.763C278.681 169.009 278.031 169.075 277.404 168.951C276.777 168.828 276.201 168.522 275.748 168.07C275.295 167.619 274.987 167.044 274.861 166.418C274.736 165.791 274.799 165.141 275.043 164.551C275.287 163.96 275.701 163.455 276.232 163.1C276.763 162.744 277.388 162.555 278.027 162.555C278.881 162.555 279.701 162.893 280.306 163.496C280.911 164.099 281.253 164.918 281.256 165.772Z" fill="#EDCEF1" stroke="#263238" stroke-linecap="round" stroke-linejoin="round"/>
<path d="M125.041 211.144C124.638 211.894 124.056 212.535 123.348 213.008C118.103 217.192 112.737 221.205 107.25 225.047C105.238 226.457 103.146 227.912 101.202 229.492C89.5149 237.314 96.6543 239.224 89.5149 255.776C87.8324 259.732 88.1393 279.116 88.1393 279.116H87.5596C86.1911 277.765 84.7367 276.504 83.2054 275.341C82.9939 275.199 82.7737 275.07 82.5461 274.955C82.3325 274.845 82.1019 274.772 81.864 274.739C80.7271 274.671 76.3957 275.194 72.0189 274.909L70.882 274.818C70.2454 274.75 69.6201 274.671 68.9948 274.557C68.3696 274.443 67.7671 274.318 67.1873 274.159C63.0336 272.827 58.9607 271.256 54.9889 269.452L53.0108 268.6L52.0331 268.179L51.1463 267.793L50.5097 267.52L49.8958 267.258C48.8613 266.826 47.895 266.428 47.0082 266.122C46.6017 265.976 46.1881 265.85 45.7691 265.746C45.7691 266.679 45.6213 267.634 45.4962 268.566C44.9505 273.011 43.7341 277.115 41.5627 277.661C41.518 277.672 41.471 277.672 41.4263 277.661C41.2351 277.696 41.041 277.715 40.8465 277.717H40.676C40.195 277.708 39.7188 277.619 39.2663 277.456C37.2956 276.615 35.6852 275.105 34.7189 273.193C34.2871 272.386 34.046 271.492 34.0141 270.578C34.0141 267.27 33.0932 247.75 33.0932 242.066C33.0932 236.382 34.2301 226.434 37.0608 222.739C38.1671 221.173 39.5642 219.834 41.1762 218.795C43.2503 217.065 45.6293 215.739 48.1905 214.884C51.2145 213.895 57.9788 211.371 62.6967 209.586L55.5687 212.337C57.3763 215.429 61.2529 220.295 68.2445 220.92C74.8155 221.478 78.8854 215.532 80.9658 211.189C81.1477 211.257 92.5844 209.086 95.2333 209.211C103.862 209.586 110.899 204.914 114.082 203.061C115.042 202.487 116.12 202.138 117.234 202.039C118.348 201.94 119.47 202.094 120.516 202.49C121.562 202.886 122.506 203.513 123.275 204.324C124.045 205.136 124.622 206.11 124.962 207.176V207.278C125.459 208.514 125.487 209.889 125.041 211.144Z" fill="#EDCEF1" stroke="#263238" stroke-linecap="round" stroke-linejoin="round"/>
<path d="M80.8408 211.257L80.3178 211.075L80.8408 211.257Z" fill="white" stroke="#263238" stroke-linecap="round" stroke-linejoin="round"/>
<path d="M90.5381 284.118C90.5436 284.163 90.5436 284.209 90.5381 284.254C90.4919 284.364 90.4217 284.462 90.3326 284.541C90.2434 284.62 90.1376 284.678 90.0231 284.711C89.9085 284.744 89.788 284.751 89.6706 284.73C89.5531 284.71 89.4416 284.664 89.3444 284.595C88.8215 284.3 88.0143 282.401 88.0143 282.401L87.1162 281.469L86.525 280.844C86.616 281.071 87.3322 282.81 86.957 283.618C86.938 283.673 86.9069 283.723 86.8661 283.765C86.6149 284.101 86.2888 284.374 85.9139 284.561C85.5389 284.749 85.1253 284.846 84.7061 284.845C84.2172 284.845 82.7848 285.016 81.5343 285.096H81.3979C81.0192 285.117 80.6397 285.117 80.261 285.096C79.2516 284.966 78.2779 284.637 77.3961 284.129C75.3962 283.835 73.4258 283.368 71.5073 282.731L71.1662 282.549L70.8593 282.367C70.6574 282.245 70.4705 282.1 70.3022 281.935C69.6094 281.358 69.0211 280.666 68.5628 279.889C68.5628 279.889 63.9472 279.696 57.7514 279.218C55.4777 279.048 53.0221 278.832 50.4756 278.581C46.5648 278.184 43.3362 278.206 40.801 277.854H40.6191C40.1189 277.786 39.6528 277.695 39.2094 277.592C38.1274 277.381 37.1269 276.869 36.3227 276.115C35.5184 275.361 34.9428 274.395 34.6621 273.329C34.5132 272.825 34.3918 272.312 34.2983 271.794L36.2764 268.384C37.3074 267.557 38.4571 266.89 39.6869 266.406C41.5949 265.607 43.7017 265.413 45.7236 265.849C46.1427 265.953 46.5563 266.078 46.9627 266.224C47.8495 266.565 48.8158 266.963 49.8503 267.361L50.4756 267.622L51.1122 267.895L51.999 268.282C57.0579 270.373 63.0946 273.068 67.1304 274.205C68.3426 274.522 69.578 274.742 70.8252 274.864L71.962 274.955C76.3389 275.239 80.6589 274.716 81.8071 274.784C82.9553 274.853 85.7633 277.524 87.5596 279.173C88.0484 279.627 88.4804 280.002 88.776 280.23L88.9124 280.344L89.0147 280.434C89.6658 281.103 90.1219 281.936 90.3335 282.845C90.4229 283.149 90.4838 283.461 90.5154 283.777C90.536 283.889 90.5436 284.004 90.5381 284.118Z" fill="white" stroke="#263238" stroke-linecap="round" stroke-linejoin="round"/>
<path d="M90.5381 284.118C90.5436 284.163 90.5436 284.209 90.5381 284.254C90.4908 284.363 90.4197 284.46 90.3301 284.538C90.2404 284.616 90.1345 284.673 90.02 284.704C89.9056 284.736 89.7855 284.742 89.6686 284.721C89.5517 284.7 89.4409 284.653 89.3444 284.584C88.7823 283.932 88.3327 283.19 88.0143 282.39L87.1162 281.469L86.525 280.855C86.6046 281.037 87.3436 282.81 86.9684 283.629C86.9493 283.684 86.9183 283.735 86.8774 283.777C86.7514 283.944 86.6064 284.097 86.4454 284.232C85.9552 284.625 85.3462 284.842 84.7174 284.845C84.2172 284.845 82.7962 285.005 81.557 285.096H81.3978C81.0192 285.117 80.6397 285.117 80.261 285.096C79.2578 284.962 78.2893 284.637 77.4075 284.141C75.4076 283.841 73.4373 283.369 71.5186 282.731L71.189 282.572L70.882 282.39C70.6854 282.26 70.4992 282.116 70.3249 281.958C69.622 281.376 69.0257 280.675 68.5628 279.889C68.5628 279.889 64.0837 279.696 58.0129 279.229C55.7392 279.059 53.1131 278.832 50.4756 278.57C46.8832 278.218 43.916 278.115 41.5172 277.74L40.7783 277.604L39.9256 277.41C39.7291 276.017 39.8734 274.597 40.3463 273.272C40.787 272.154 41.4704 271.148 42.3472 270.326C43.224 269.505 44.2724 268.888 45.4166 268.52C46.8367 267.998 48.2916 267.577 49.7707 267.258L50.3846 267.52L51.0213 267.793L51.908 268.179C57.0579 270.396 63.0264 273.079 67.0736 274.182C68.2848 274.501 69.5208 274.718 70.7683 274.83L71.9052 274.921C76.282 275.216 80.6021 274.693 81.7503 274.762C82.8985 274.83 85.6951 277.49 87.4345 279.138C87.8291 279.516 88.2427 279.872 88.6737 280.207L88.8101 280.309L88.9124 280.4C89.5759 281.059 90.034 281.896 90.2311 282.81C90.3206 283.115 90.3815 283.427 90.413 283.743C90.4712 283.862 90.5133 283.988 90.5381 284.118Z" fill="white" stroke="#263238" stroke-linecap="round" stroke-linejoin="round"/>
<path d="M76.93 281.094C76.93 281.094 79.5107 282.435 80.5338 282.901C81.557 283.367 81.4661 285.243 81.4661 285.243" fill="white"/>
<path d="M76.93 281.094C76.93 281.094 79.5107 282.435 80.5338 282.901C81.557 283.367 81.4661 285.243 81.4661 285.243" stroke="#263238" stroke-linecap="round" stroke-linejoin="round"/>
<path d="M79.6926 279.275C81.3161 280.434 82.8794 281.674 84.3764 282.992C84.5951 283.249 84.7376 283.562 84.7878 283.895C84.8381 284.229 84.794 284.57 84.6606 284.88" fill="white"/>
<path d="M79.6926 279.275C81.3161 280.434 82.8794 281.674 84.3764 282.992C84.5951 283.249 84.7376 283.562 84.7878 283.895C84.8381 284.229 84.794 284.57 84.6606 284.88" stroke="#263238" stroke-linecap="round" stroke-linejoin="round"/>
<path d="M86.4909 280.832C85.1458 279.391 83.7226 278.025 82.2278 276.74L86.4909 280.832Z" fill="white"/>
<path d="M86.4909 280.832C85.1458 279.391 83.7226 278.025 82.2278 276.74" stroke="#263238" stroke-linecap="round" stroke-linejoin="round"/>
<path d="M80.8294 211.28C78.7717 215.611 74.6904 221.512 68.1195 221C61.162 220.409 57.2512 215.509 55.4436 212.405C57.9447 211.45 60.4798 210.473 62.5603 209.654C62.5603 207.54 62.4921 205.005 62.2647 202.492C62.2647 201.946 62.151 201.355 62.0942 200.844C62.0373 200.332 61.9691 199.968 61.9009 199.548H75.1224C75.1224 199.548 75.0429 200.071 74.9406 200.946C74.861 201.73 74.7587 202.776 74.6791 203.959C74.5768 205.527 74.5085 207.369 74.554 209.109C75.1907 209.325 75.8387 209.563 76.4867 209.813L77.7372 210.245C78.2374 210.427 78.7262 210.586 79.2492 210.757L80.386 211.098C80.5375 211.149 80.6856 211.21 80.8294 211.28Z" fill="white" stroke="#263238" stroke-linecap="round" stroke-linejoin="round"/>
<path d="M62.0942 200.798C62.0942 200.798 64.5611 207.21 68.1422 208.302C71.7233 209.393 74.9633 200.946 74.9633 200.946C74.9633 200.946 69.9157 206.335 68.0399 205.494C66.1641 204.652 62.1169 200.844 62.1169 200.844" fill="#263238"/>
<path d="M59.9683 165.386C56.6273 168.393 53.9782 172.089 52.2036 176.22C50.5779 179.63 49.2023 183.552 50.4529 187.122C51.2012 188.895 52.2599 190.519 53.5792 191.92C56.0348 194.864 59.4794 203.083 61.935 206.028C62.0942 200.787 57.7059 192.317 58.1721 187.918C58.7366 184.519 59.8541 181.235 61.4803 178.198C63.1341 174.214 65.2969 170.462 67.9148 167.034C69.4041 165.238 74.1902 162.043 69.3586 161.657C66.1527 161.395 62.3898 163.396 59.9683 165.386Z" fill="#263238" stroke="#263238" stroke-linecap="round" stroke-linejoin="round"/>
<path d="M56.876 183.257C56.876 183.257 55.1821 179.971 53.3973 183.086C52.1126 185.36 53.9657 188.941 54.7615 190.271C55.0256 190.65 55.3833 190.953 55.7997 191.153C56.2161 191.352 56.677 191.44 57.1375 191.408L56.876 183.257Z" fill="white" stroke="#263238" stroke-linecap="round" stroke-linejoin="round"/>
<path d="M79.1355 195.125C78.0492 197.272 76.6338 199.236 74.9406 200.946L73.9174 202.003C71.8029 204.095 69.5178 205.755 68.0171 205.414C66.7098 205.152 65.0045 203.811 63.3333 202.094C62.9127 201.674 62.5034 201.219 62.0942 200.764C60.2746 198.773 58.7125 196.562 57.4445 194.182C57.0922 193.289 56.8665 192.352 56.7737 191.396C56.4869 188.549 56.3881 185.685 56.4781 182.825C56.4781 181.813 56.4781 181.006 56.4781 180.551C56.4781 178.573 63.8904 171.695 63.8904 171.695C64.0902 171.622 64.3048 171.598 64.5157 171.627C65.7905 171.859 67.0192 172.296 68.1536 172.923C72.6441 175.105 78.9081 179.437 79.3629 181.085C80.0564 183.484 79.7949 192.988 79.1355 195.125Z" fill="white" stroke="#263238" stroke-linecap="round" stroke-linejoin="round"/>
<path d="M64.4133 186.008C64.4133 186.804 64.1178 187.452 63.7881 187.452C63.4584 187.452 63.1287 186.826 63.1287 186.008C63.1287 185.189 63.4243 184.541 63.7881 184.541C64.1519 184.541 64.4133 185.212 64.4133 186.008Z" fill="#263238"/>
<path d="M72.8829 184.553C73.2466 184.553 73.5422 185.201 73.5422 186.008C73.5422 186.815 73.2466 187.452 72.8829 187.452C72.5191 187.452 72.2235 186.804 72.2235 186.008C72.2235 185.212 72.5191 184.553 72.8829 184.553Z" fill="#263238"/>
<path d="M60.1843 182.427C60.1843 182.427 61.3211 180.153 65.3456 180.847" stroke="#263238" stroke-linecap="round" stroke-linejoin="round"/>
<path d="M76.6231 182.427C76.6231 182.427 75.4862 180.153 71.4618 180.847" stroke="#263238" stroke-linecap="round" stroke-linejoin="round"/>
<path d="M69.1767 191.567C69.5856 191.541 69.9754 191.385 70.2886 191.121C70.6018 190.857 70.8218 190.499 70.9161 190.101C70.9161 190.101 68.7106 186.69 69.3814 183.348" stroke="#263238" stroke-linecap="round" stroke-linejoin="round"/>
<path d="M55.4436 175.299C54.5277 176.541 53.8352 177.934 53.3973 179.414" stroke="white" stroke-linecap="round" stroke-linejoin="round"/>
<path d="M64.9477 166.204C64.9477 166.204 63.6858 168.296 58.1266 172.559C57.7683 172.818 57.4266 173.099 57.1034 173.4" stroke="white" stroke-linecap="round" stroke-linejoin="round"/>
<path d="M47.1219 232.857C46.364 243.665 45.6061 254.48 44.8482 265.303V264.473" fill="#263238"/>
<path d="M47.1219 232.857C46.364 243.665 45.6061 254.48 44.8482 265.303V264.473" stroke="#263238" stroke-linecap="round" stroke-linejoin="round"/>
<path d="M118.937 197.172C119.964 196.77 121.074 196.627 122.17 196.753C123.266 196.88 124.315 197.274 125.223 197.899C127.036 199.183 128.356 201.049 128.964 203.186C129.688 205.314 129.616 207.633 128.759 209.711C128.316 210.736 127.602 211.621 126.695 212.271C125.788 212.922 124.722 213.314 123.609 213.406C121.951 213.385 120.348 212.804 119.062 211.757C114.81 208.574 112.684 199.866 118.937 197.172Z" fill="white" stroke="#263238" stroke-linecap="round" stroke-linejoin="round"/>
<path d="M128.35 160.872C128.35 161.009 128.35 161.907 128.429 162.066C128.827 163.817 129.668 168.193 127.542 169.08C128.35 171.956 130.328 190.749 130.066 200.332C129.998 203.197 129.498 206.596 126.929 207.824C122.597 209.882 118.482 204.868 118.971 200.946C119.732 195.591 119.471 190.135 120.108 184.723C120.801 179.107 122.074 173.355 120.676 167.864C120.335 167.489 118.152 163.157 117.436 161.964C117.115 161.453 116.862 160.903 116.686 160.326C116.406 158.365 116.269 156.385 116.276 154.404C116.924 153.176 117.766 154.313 118.209 155.12C118.571 156.104 118.695 157.159 118.573 158.201C118.531 158.455 118.566 158.717 118.675 158.951C118.77 159.085 118.9 159.191 119.049 159.259C119.199 159.327 119.364 159.354 119.528 159.337C120.926 159.133 120.869 157.962 120.846 157.064C120.846 154.051 120.846 151.038 120.846 148.049C120.846 147.548 121.006 146.195 121.483 146.15C121.961 146.105 122.677 146.491 122.745 148.094C122.825 149.902 122.825 155.472 122.825 155.472C122.87 155.518 122.926 155.551 122.987 155.569C123.049 155.587 123.114 155.589 123.177 155.574C123.291 155.574 123.336 155.37 123.382 155.256C124.052 152.46 124.734 149.663 125.405 146.866C125.485 146.537 125.974 145.854 126.326 145.854C127.167 145.854 127.19 146.832 127.236 147.116C127.531 148.617 125.428 154.801 125.076 156.211C125.076 156.461 125.076 156.836 125.337 156.768L128.634 150.118C128.787 149.729 129.027 149.381 129.337 149.101C129.647 148.821 130.017 148.616 130.419 148.503C130.474 148.486 130.534 148.486 130.589 148.503C130.649 148.538 130.696 148.589 130.726 148.651C131.044 149.219 130.726 150.004 130.544 150.629C130.362 151.254 127.895 155.847 127.02 157.7C126.894 157.962 126.69 158.553 126.94 158.837C127.19 159.121 127.645 158.576 127.827 158.201C128.384 157.064 128.907 155.995 129.418 154.881C129.577 154.551 129.816 154.085 130.191 154.165C132.408 154.642 129.259 159.292 128.35 160.872Z" fill="white" stroke="#263238" stroke-linecap="round" stroke-linejoin="round"/>
<path d="M122.233 159.894C123.378 160.801 124.372 161.883 125.178 163.1C125.575 163.712 125.841 164.4 125.959 165.12C126.076 165.841 126.042 166.577 125.86 167.284C125.805 167.468 125.732 167.647 125.644 167.818" fill="white"/>
<path d="M122.233 159.894C123.378 160.801 124.372 161.883 125.178 163.1C125.575 163.712 125.841 164.4 125.959 165.12C126.076 165.841 126.042 166.577 125.86 167.284C125.805 167.468 125.732 167.647 125.644 167.818" stroke="#263238" stroke-linecap="round" stroke-linejoin="round"/>
<path d="M90.2084 230.913C91.4115 233.339 92.2212 235.941 92.6072 238.621C92.9368 241.304 93.0392 243.407 91.2088 250.945" stroke="#263238" stroke-linecap="round" stroke-linejoin="round"/>
<path d="M64.5498 169.99C64.3941 170.454 64.3551 170.95 64.4361 171.434C64.6518 172.042 65.0485 172.569 65.5729 172.946C69.2065 176.13 73.271 178.786 77.6463 180.835C78.195 180.978 78.6706 181.321 78.9798 181.796C79.289 182.271 79.4094 182.845 79.3174 183.405V192.192C79.3733 193.099 79.2851 194.008 79.0559 194.887C78.4193 196.933 77.0096 198.581 75.9865 200.469C74.9463 202.258 74.4192 204.3 74.4631 206.369C74.1789 204.197 81.773 199.991 83.8307 191.442C84.1149 190.237 90.0265 183.063 86.4796 174.639C83.069 166.556 77.7031 163.078 75.8955 162.657C74.6685 162.298 73.3738 162.237 72.1184 162.478C70.8631 162.719 69.6832 163.256 68.6765 164.044C66.69 165.523 65.2409 167.611 64.5498 169.99Z" fill="#263238" stroke="#263238" stroke-linecap="round" stroke-linejoin="round"/>
<path d="M71.9961 194.625C71.3481 194.762 70.6888 194.887 70.0294 194.966C67.7557 195.25 65.3228 194.898 63.8336 193.238C63.9472 194.727 64.9704 200.355 68.0285 200.514C71.0866 200.673 71.9961 194.625 71.9961 194.625Z" stroke="#263238" stroke-linecap="round" stroke-linejoin="round"/>
<path d="M69.0403 166.556C70.3516 169.533 72.4408 172.102 75.0883 173.991C77.0096 175.367 79.2037 176.356 80.9658 177.925C83.2395 180.005 84.7288 183.302 83.8534 186.292" stroke="white" stroke-linecap="round" stroke-linejoin="round"/>
<path d="M92.8004 212.485C90.6102 214.243 89.168 216.766 88.7646 219.545C88.3726 221.946 88.6682 224.41 89.6172 226.65" stroke="#263238" stroke-linecap="round" stroke-linejoin="round"/>
<path d="M50.4529 231.243C50.271 234.222 48.4179 236.802 46.6217 239.201L50.4529 231.243Z" fill="#263238"/>
<path d="M50.4529 231.243C50.271 234.222 48.4179 236.802 46.6217 239.201" stroke="#263238" stroke-linecap="round" stroke-linejoin="round"/>
<path d="M46.0191 254.014C46.9221 255.526 48.1307 256.832 49.5676 257.85C51.0044 258.868 52.6379 259.575 54.3636 259.926" stroke="#263238" stroke-linecap="round" stroke-linejoin="round"/>
<path d="M89.5149 255.788C89.5149 255.788 86.4568 260.335 76.066 261.29" stroke="#263238" stroke-linecap="round" stroke-linejoin="round"/>
<path d="M393.906 215.941C393.906 215.941 354.287 228.219 346.829 218.522L347.841 169.058H353.855L360.926 203.902L393.394 197.956C393.394 197.956 397.555 210.848 393.906 215.941Z" fill="white"/>
<path d="M377.217 217.669C374.945 218.572 372.777 219.716 370.748 221.08C373.431 221.932 376.296 220.852 378.979 220C382.522 218.912 386.134 218.061 389.79 217.453C389.961 216.441 388.654 214.134 388.142 213.235C387.21 211.667 387.005 211.53 385.436 212.303C382.583 213.736 380.15 216.225 377.217 217.669Z" fill="#EDCEF1"/>
<path d="M393.906 215.941C393.906 215.941 354.287 228.219 346.829 218.522L347.841 169.058H353.855L360.926 203.902L393.394 197.956C393.394 197.956 397.555 210.848 393.906 215.941Z" stroke="#263238" stroke-linecap="round" stroke-linejoin="round"/>
<path d="M390.018 217.237L396.975 260.074C396.793 287.835 410.038 283.663 419.235 283.584C429.864 283.493 445.996 272.954 438.084 256.549L441.13 197.172L422.611 195.762C416.506 195.285 391.496 196.069 389.506 199.264C384.345 207.551 390.018 217.237 390.018 217.237Z" fill="white"/>
<path d="M391.109 220.773C395.241 236.404 405.151 249.885 418.837 258.493C417.355 258.259 415.908 257.843 414.528 257.254C413.14 256.656 411.585 256.571 410.14 257.015C409.791 257.141 409.47 257.334 409.196 257.584C408.922 257.834 408.7 258.136 408.543 258.471C408.386 258.807 408.296 259.171 408.279 259.541C408.263 259.912 408.319 260.282 408.446 260.63C408.778 261.163 409.229 261.611 409.765 261.938C412.022 263.524 414.49 264.787 417.098 265.689C414.811 265.455 412.501 265.632 410.276 266.212C409.867 268.19 412.073 269.623 413.812 270.589C416.587 272.225 418.964 274.458 420.77 277.126C414.665 277.139 408.566 277.488 402.5 278.172C401.701 278.351 400.865 278.272 400.113 277.945C399.326 277.359 398.796 276.491 398.635 275.523C397.283 270.794 396.497 265.92 396.293 261.006C396.18 258.243 396.293 255.458 395.929 252.718C395.636 250.558 395.234 248.414 394.724 246.295C392.958 238.094 391.606 229.829 390.666 221.5C390.245 221.534 391.109 220.773 391.109 220.773Z" fill="#EDCEF1"/>
<path d="M438.072 217.362C436.539 216.87 435.109 216.099 433.855 215.088C434.207 216.794 436.754 219.738 438.243 220.648C438.55 220.841 438.993 221 439.266 220.739C439.539 220.477 439.721 219.806 439.994 219.602L438.072 217.362Z" fill="#EDCEF1"/>
<path d="M390.018 217.237L396.975 260.074C396.793 287.835 410.038 283.663 419.235 283.584C429.864 283.493 445.996 272.954 438.084 256.549L441.13 197.172L422.611 195.762C416.506 195.285 391.496 196.069 389.506 199.264C384.345 207.551 390.018 217.237 390.018 217.237Z" stroke="#263238" stroke-linecap="round" stroke-linejoin="round"/>
<path d="M403.558 194.887C401.565 198.535 400.606 202.659 400.784 206.812C400.781 207.175 400.851 207.534 400.988 207.87C401.5 208.881 402.898 208.881 404.024 209.006C408.401 209.563 411.118 214.179 415.244 215.725C415.389 215.814 415.55 215.874 415.718 215.899C415.886 215.924 416.058 215.916 416.222 215.873C416.387 215.831 416.541 215.755 416.676 215.652C416.811 215.548 416.923 215.419 417.007 215.27C418.803 212.997 419.439 209.802 421.895 208.336C422.964 207.699 424.317 207.438 425.055 206.437C425.897 205.3 425.522 203.663 425.112 202.276C424.442 200.003 423.691 197.638 421.952 196.058C420.099 194.611 417.822 193.813 415.472 193.784C412.032 193.503 408.569 193.826 405.24 194.739C405.286 195.171 403.558 194.887 403.558 194.887Z" fill="#EDCEF1" stroke="#263238" stroke-linecap="round" stroke-linejoin="round"/>
<path d="M458.581 223.956C455.802 219.91 453.755 215.408 452.533 210.655C452.088 208.274 451.394 205.945 450.464 203.709C449.586 201.981 448.319 200.481 446.763 199.327C445.206 198.173 443.402 197.396 441.494 197.058C440.68 196.879 439.833 196.918 439.039 197.172C437.39 197.797 436.663 199.696 436.333 201.424C435.619 205.135 435.83 208.965 436.947 212.576C437.709 215.032 446.86 232.835 452.863 239.735C452.34 236.257 456.341 224.627 458.581 223.956Z" fill="white"/>
<path d="M440.63 220.466L446.246 231.05C447.053 232.562 447.963 234.176 449.532 234.836C448.545 231.339 447.984 227.735 447.861 224.104C447.922 222.279 447.711 220.455 447.235 218.692C447.008 218.886 446.769 218.067 446.769 218.067C446.519 218.533 445.86 218.544 445.348 218.442C441.676 217.669 439.152 214.395 436.97 211.348C436.686 212.369 436.64 213.441 436.838 214.482C437.035 215.523 437.469 216.505 438.106 217.351C438.106 217.351 440.448 220.113 440.63 220.466Z" fill="#EDCEF1"/>
<path d="M458.581 223.956C455.802 219.91 453.755 215.408 452.533 210.655C452.088 208.274 451.394 205.945 450.464 203.709C449.586 201.981 448.319 200.481 446.763 199.327C445.206 198.173 443.402 197.396 441.494 197.058C440.68 196.879 439.833 196.918 439.039 197.172C437.39 197.797 436.663 199.696 436.333 201.424C435.619 205.135 435.83 208.965 436.947 212.576C437.709 215.032 446.86 232.835 452.863 239.735C452.34 236.257 456.341 224.627 458.581 223.956Z" stroke="#263238" stroke-linecap="round" stroke-linejoin="round"/>
<path d="M450.691 236.689C444.575 224.968 447.531 197.956 447.349 193.613L455.421 193.181C456.228 193.181 459.968 216.214 462.515 225.775C464.788 234.483 462.605 243.294 458.581 243.294C455.239 243.294 451.976 239.156 450.691 236.689Z" fill="white" stroke="#263238" stroke-linecap="round" stroke-linejoin="round"/>
<path d="M377.808 206.255C383.492 197.956 394.645 197.297 394.645 197.297" stroke="#263238" stroke-linecap="round" stroke-linejoin="round"/>
<path d="M355.878 210.905C357.598 209.325 358.945 207.384 359.823 205.221L355.878 210.905Z" fill="white"/>
<path d="M355.878 210.905C357.598 209.325 358.945 207.384 359.823 205.221" stroke="#263238" stroke-linecap="round" stroke-linejoin="round"/>
<path d="M398.112 250.126C401.352 255.435 422.338 261.108 430.706 259.892" stroke="#263238" stroke-linecap="round" stroke-linejoin="round"/>
<path d="M404.047 265.11C410.092 266.15 416.288 265.914 422.236 264.416" stroke="#263238" stroke-linecap="round" stroke-linejoin="round"/>
<path d="M431.888 213.599L435.89 219.022C436.435 219.761 437.197 220.591 438.095 220.386" stroke="#263238" stroke-linecap="round" stroke-linejoin="round"/>
<path d="M461.628 419.3C461.275 420.744 461.162 422.461 462.196 423.541C463.231 424.621 464.731 424.598 466.13 424.575L470.939 424.484C472.793 424.577 474.647 424.287 476.384 423.632C477.253 423.294 477.997 422.697 478.516 421.923C479.034 421.148 479.302 420.232 479.283 419.3C479.165 418.579 478.934 417.881 478.601 417.231C478.169 416.299 477.737 415.356 477.316 414.423C472.007 402.725 463.901 409.842 461.628 419.3Z" fill="white" stroke="#263238" stroke-linecap="round" stroke-linejoin="round"/>
<path d="M454.852 405.51C455.02 410.88 454.57 416.251 453.511 421.517C453.261 422.711 453.511 424.518 454.648 424.405C455.093 424.336 455.498 424.105 455.784 423.757C459.963 419.635 462.952 414.463 464.436 408.784C464.659 408.195 464.763 407.566 464.742 406.936C464.72 406.306 464.574 405.686 464.311 405.112C463.999 404.652 463.615 404.245 463.174 403.907C459.32 400.826 454.5 397.768 454.852 405.51Z" fill="white" stroke="#263238" stroke-linecap="round" stroke-linejoin="round"/>
<path d="M441.653 268.1C441.653 268.1 447.645 278.513 448.929 280.935C450.214 283.356 477.35 319.019 482.557 344.985C483.535 349.919 463.515 405.101 463.515 405.101L458.968 402.532C458.968 402.532 462.128 352.204 461.355 348.02C460.582 343.836 440.608 312.96 440.608 312.96C440.608 312.96 429.455 304.763 424.862 295.236L441.653 268.1Z" fill="#263238"/>
<path d="M442.301 294.19C442.301 294.19 438.891 301.785 438.891 302.876C438.891 303.967 457.649 363.243 463.163 376.953C466.649 385.782 469.722 394.817 472.382 404.055C472.382 404.055 474.52 406.863 472.905 409.74C471.291 412.616 464.868 414.503 463.549 411.934C462.23 409.364 449.236 396.018 443.757 382.739C438.277 369.461 430.569 347.27 426.181 339.005C420.433 328.444 415.331 317.544 410.902 306.366C405.388 292.258 399.749 277.047 399.749 277.047C402.039 277.253 404.34 277.318 406.639 277.24C412.05 277.056 417.409 276.106 422.554 274.421C434.537 270.396 439.721 262.688 439.721 262.688C439.721 262.688 442.688 270.726 443.461 272.283L442.301 294.19Z" fill="#263238"/>
<path d="M480.556 350.066C479.382 352.078 477.803 353.824 475.918 355.194" stroke="white" stroke-linecap="round" stroke-linejoin="round"/>
<path d="M482.023 346.758C481.852 347.312 481.647 347.855 481.409 348.384" stroke="white" stroke-linecap="round" stroke-linejoin="round"/>
<path d="M431.467 276.478C434.491 281.685 437.322 289.177 436.867 295.179C436.624 296.269 436.242 297.324 435.73 298.317" stroke="white" stroke-linecap="round" stroke-linejoin="round"/>
<path d="M413.164 282.265C413.494 285.164 413.937 289.984 413.3 292.826C412.763 295.733 411.095 298.308 408.662 299.988" stroke="white" stroke-linecap="round" stroke-linejoin="round"/>
<path d="M438.948 271.294C439.608 272.117 440.144 273.033 440.539 274.011C441.309 275.417 442.368 276.644 443.645 277.612C444.922 278.58 446.39 279.267 447.952 279.627" stroke="white" stroke-linecap="round" stroke-linejoin="round"/>
<path d="M429.296 282.913C433.309 291.689 436.378 300.488 442.608 315.404" stroke="white" stroke-linecap="round" stroke-linejoin="round"/>
<path d="M427.159 278.422C427.5 279.104 427.829 279.787 428.159 280.469" stroke="white" stroke-linecap="round" stroke-linejoin="round"/>
<path d="M460.559 345.564C462.399 349.109 464.738 352.371 467.505 355.25" stroke="white" stroke-linecap="round" stroke-linejoin="round"/>
<path d="M462.458 348.839C463.662 354.401 465.861 359.701 468.949 364.482" stroke="white" stroke-linecap="round" stroke-linejoin="round"/>
<path d="M434.196 349.123C425.34 330.228 415.892 311.482 404.285 282.913" stroke="white" stroke-linecap="round" stroke-linejoin="round"/>
<path d="M436.197 354.614C435.981 353.954 435.753 353.295 435.514 352.624" stroke="white" stroke-linecap="round" stroke-linejoin="round"/>
<path d="M466.812 412.707C464.538 409.739 447.963 386.559 443.848 376.055C441.108 369.052 439.039 364.106 437.026 357.126" stroke="white" stroke-linecap="round" stroke-linejoin="round"/>
<path d="M460.559 368.097L468.438 391.254" stroke="white" stroke-linecap="round" stroke-linejoin="round"/>
<path d="M455.25 193.193L452.863 193.386C449.838 193.924 446.731 193.78 443.768 192.965C441.869 192.499 437.47 191.135 436.947 191.044C435.64 190.765 434.319 190.552 432.991 190.408C428.978 190.169 431.013 188.668 432.684 188.736C434.889 188.839 435.628 188.793 437.322 188.918C437.117 188.805 436.492 188.68 436.481 188.191C436.481 186.997 438.05 187.054 438.05 187.054C438.05 187.054 436.333 186.326 436.572 185.428C436.81 184.53 437.959 184.291 438.686 184.36C438.686 184.36 437.72 183.893 437.765 183.393C437.97 181.461 441.938 181.324 441.938 181.324C440.978 180.895 440.08 180.341 439.266 179.676C438.969 179.356 438.761 178.964 438.664 178.539C438.642 178.336 438.676 178.132 438.76 177.947C438.845 177.761 438.978 177.602 439.146 177.486C439.313 177.37 439.508 177.301 439.712 177.286C439.915 177.271 440.118 177.311 440.301 177.402C441.327 178.086 442.317 178.822 443.268 179.608C444.496 180.483 445.917 181.04 447.213 181.824C448.476 182.905 449.495 184.242 450.203 185.747C450.407 186.065 455.25 193.193 455.25 193.193Z" fill="white" stroke="#263238" stroke-linecap="round" stroke-linejoin="round"/>
<path d="M347.841 169.058V162.794C347.826 159.65 348.286 156.523 349.205 153.517C349.728 151.857 350.342 150.413 350.899 150.197C351.933 149.822 352.388 154.017 352.388 154.017C351.61 150.653 351.112 147.231 350.899 143.785C350.899 140.136 355.81 155.29 355.81 155.29L353.855 169.058H347.841Z" fill="white" stroke="#263238" stroke-linecap="round" stroke-linejoin="round"/>
<path d="M353.775 158.871C354.369 158.413 354.812 157.787 355.048 157.075L353.775 158.871Z" fill="white"/>
<path d="M353.775 158.871C354.369 158.413 354.812 157.787 355.048 157.075" stroke="#263238" stroke-linecap="round" stroke-linejoin="round"/>
<path d="M401.386 182.12C403.51 185.695 404.684 189.753 404.797 193.909C405.001 200.821 413.005 210.496 415.29 210.962C417.575 211.428 419.689 200.048 419.587 196.603C419.485 193.159 418.212 183.643 418.212 183.643C418.212 183.643 407.264 175.367 401.386 182.12Z" fill="white" stroke="#263238" stroke-linecap="round" stroke-linejoin="round"/>
<path d="M404.604 191.272C404.604 191.272 415.097 205.584 419.212 191.033C423.327 176.481 407.673 195.012 404.604 191.272Z" fill="#263238"/>
<path d="M422.316 180.983C421.759 189.475 417.882 194.25 413.414 195.091C409.333 195.842 403.364 191.681 400.386 185.508C400.158 185.36 396.532 182.848 395.668 182.234C395.217 181.918 394.849 181.498 394.595 181.009C394.342 180.52 394.211 179.976 394.213 179.426C394.242 178.897 394.428 178.389 394.748 177.968C395.069 177.547 395.508 177.231 396.009 177.061H396.111C396.623 176.95 397.156 176.989 397.646 177.175C396.896 174.276 396.282 171.331 395.816 168.364C396.032 161.543 398.294 155.973 405.57 155.427C412.846 154.881 418.928 158.951 419.212 161.884C419.417 164.158 420.156 170.172 420.815 176.39C420.997 178.005 422.441 179.073 422.316 180.983Z" fill="white" stroke="#263238" stroke-linecap="round" stroke-linejoin="round"/>
<path d="M419.212 171.161C419.212 171.161 414.528 169.012 415.324 175.992C415.483 177.368 418.041 179.403 418.041 179.403C418.041 179.403 417.382 181.461 416.165 181.461" fill="white"/>
<path d="M419.212 171.161C419.212 171.161 414.528 169.012 415.324 175.992C415.483 177.368 418.041 179.403 418.041 179.403C418.041 179.403 417.382 181.461 416.165 181.461" stroke="#263238" stroke-linecap="round" stroke-linejoin="round"/>
<path d="M410.163 173.548C410.163 173.548 407.775 172.093 406.138 172.991C405.284 173.362 404.558 173.975 404.047 174.753" fill="white"/>
<path d="M410.163 173.548C410.163 173.548 407.775 172.093 406.138 172.991C405.284 173.362 404.558 173.975 404.047 174.753" stroke="#263238" stroke-linecap="round" stroke-linejoin="round"/>
<path d="M408.799 177.572C408.98 178.414 408.799 179.164 408.31 179.266C407.821 179.369 407.343 178.755 407.173 177.914C407.002 177.072 407.173 176.322 407.673 176.22C408.173 176.117 408.628 176.72 408.799 177.572Z" fill="#263238"/>
<path d="M418.03 175.117C418.212 175.958 418.03 176.709 417.541 176.811C417.052 176.913 416.575 176.299 416.404 175.469C416.234 174.639 416.404 173.866 416.893 173.776C417.382 173.685 417.859 174.287 418.03 175.117Z" fill="#263238"/>
<path d="M395.27 159.554C394.439 160.368 393.862 161.407 393.61 162.543C392.929 164.947 392.732 167.462 393.031 169.943C393.33 172.423 394.118 174.819 395.35 176.993C396.107 176.9 396.875 176.93 397.623 177.084C398.419 177.288 399.442 178.653 399.817 179.357C400.146 180.109 400.335 180.914 400.374 181.733C400.193 179.573 400.022 177.425 399.84 175.265C399.718 174.401 399.757 173.522 399.954 172.673C400.511 170.899 399.897 166.716 400.056 162.975C404.774 168.739 411.629 167.716 413.903 167.523C417.314 167.239 420.224 163.749 420.042 161.259C419.86 158.769 419.189 152.357 407.946 151.698C405.469 151.434 402.972 151.955 400.806 153.187C400.12 153.639 399.537 154.232 399.096 154.925C398.656 155.619 398.367 156.398 398.249 157.212C398.089 158.258 398.487 158.348 397.692 158.86C396.896 159.372 396.054 158.883 395.27 159.554Z" fill="#263238" stroke="#263238" stroke-linecap="round" stroke-linejoin="round"/>
<path d="M410.163 185.462C410.163 185.462 411.834 187.304 415.324 186.088L410.163 185.462Z" fill="white"/>
<path d="M410.163 185.462C410.163 185.462 411.834 187.304 415.324 186.088" stroke="#263238" stroke-linecap="round" stroke-linejoin="round"/>
</svg>
